<svg width="2006" height="2006" viewBox="0 0 2006 2006" fill="none" xmlns="http://www.w3.org/2000/svg">
<circle cx="1003" cy="1003" r="963" stroke="url(#paint0_linear_2612_302)" stroke-width="80"/>
<rect x="82" y="85" width="1841" height="1836" rx="918" fill="white"/>
<path d="M924.941 441.199C878.789 456.013 848.021 475.955 813.264 512.421C777.368 550.026 751.158 603.586 744.891 649.168L740.902 682.215L709.565 691.901C641.191 713.553 593.33 749.449 555.725 807.566C516.41 867.393 514.701 881.637 516.98 1145.44L518.689 1379.05L539.771 1423.5C567.12 1481.04 608.144 1521.5 667.971 1551.13L711.844 1572.78L982.488 1574.49C1175.64 1576.2 1262.82 1574.49 1285.04 1569.93C1360.82 1553.41 1428.62 1498.71 1465.66 1424.07L1487.31 1379.62L1489.02 1146.01C1491.3 881.637 1489.59 867.393 1450.28 807.566C1412.67 749.449 1364.81 713.553 1296.44 691.901L1265.1 682.215L1261.11 649.168C1252.56 582.504 1198.43 501.595 1138.04 466.269C1077.64 430.373 990.465 420.687 924.941 441.199ZM1071.37 540.91C1118.66 563.131 1154.56 609.853 1167.67 665.122L1171.08 681.075H1002.43H833.776L837.765 662.273C848.59 610.993 886.196 563.131 934.057 540.91C974.511 522.107 1031.49 522.107 1071.37 540.91ZM1278.2 786.484C1316.95 797.88 1364.24 841.183 1382.47 881.637C1396.15 911.835 1396.15 912.405 1396.15 1128.35C1396.15 1325.49 1395.01 1347.15 1385.89 1370.51C1369.37 1410.96 1340.31 1442.3 1300.42 1461.67L1264.53 1479.33L997.302 1477.62L729.507 1475.92L702.157 1461.67C669.11 1445.15 638.342 1412.67 621.819 1376.77C610.423 1351.7 609.853 1343.16 609.853 1131.2C609.853 912.405 609.853 911.835 623.528 881.637C641.191 842.892 689.622 797.88 725.518 787.054C765.973 774.519 1236.04 773.949 1278.2 786.484Z" fill="#F90089"/>
<path d="M1188.18 968.813C1161.97 980.779 1143.73 997.872 1130.63 1024.08C1118.09 1048.58 1116.96 1063.4 1126.64 1073.08C1138.61 1085.05 1147.72 1080.49 1170.51 1049.72C1196.15 1014.97 1218.95 1003 1249.14 1007.56C1287.32 1013.83 1306.12 1041.18 1310.68 1098.72C1311.82 1108.98 1312.39 1118.66 1312.96 1120.94C1314.1 1128.35 1339.17 1126.07 1346.58 1118.66C1350.56 1114.68 1353.41 1097.58 1353.41 1079.92C1353.41 1038.9 1335.75 1003.57 1303.27 980.209C1273.64 959.697 1220.65 954.569 1188.18 968.813Z" fill="#F90089"/>
<path d="M729.507 1059.98C713.553 1075.36 711.274 1099.86 721.53 1149.43C742.612 1250.85 828.648 1341.45 928.929 1368.23C1008.7 1389.88 1103.28 1367.09 1173.36 1310.11C1230.91 1263.39 1272.51 1177.35 1274.21 1101.57C1274.78 1071.37 1273.07 1065.11 1262.25 1055.99C1231.48 1030.92 1206.98 1050.29 1197.29 1108.41C1183.05 1187.61 1148.86 1238.89 1089.61 1267.95C1020.09 1301.56 961.976 1302.13 902.15 1269.66C845.172 1238.32 808.136 1181.91 792.752 1102.71C781.926 1045.16 759.135 1029.78 729.507 1059.98Z" fill="#F90089"/>
<defs>
<linearGradient id="paint0_linear_2612_302" x1="454.5" y1="171" x2="1453.5" y2="1722" gradientUnits="userSpaceOnUse">
<stop stop-color="#F90089"/>
<stop offset="1" stop-color="#CF006B"/>
</linearGradient>
</defs>
</svg>
