<svg width="2006" height="2006" viewBox="0 0 2006 2006" fill="none" xmlns="http://www.w3.org/2000/svg">
<rect x="83" y="85" width="1841" height="1836" rx="918" fill="white"/>
<rect x="255" y="288" width="1498" height="1471" rx="735.5" fill="#8257FD"/>
<circle cx="1003" cy="1003" r="963" stroke="url(#paint0_linear_2618_302)" stroke-width="80"/>
<path d="M179 1060V1060C179 1514.53 547.97 1883 1002.5 1883V1883V1883C1457.03 1883 1826 1514.53 1826 1060V1060V1060C1826 605.47 1457.03 237 1002.5 237V237V237C547.97 237 179 605.47 179 1060V1060ZM1222.1 509.87C1290.91 529.622 1354.59 564.005 1399.98 606.436L1425.76 630.398C1434.59 638.603 1435.17 652.386 1427.06 661.302V661.302C1419.01 670.081 1390.46 697.148 1362.64 721.29L1347.57 734.784C1328.28 752.047 1299.05 751.907 1279.93 734.458V734.458C1225.03 683.98 1191.36 672.276 1101.32 672.276C1033.98 672.276 1019.34 674.47 984.2 691.296C928.568 716.9 895.628 747.626 868.544 798.835C826.088 878.574 823.892 975.871 861.956 1058.54C886.112 1109.75 926.372 1149.25 983.468 1176.32C1027.39 1196.8 1038.37 1199 1101.32 1199C1160.61 1199 1176.72 1196.07 1211.85 1179.98C1234.54 1169 1266.02 1148.52 1282.12 1133.89C1298.23 1119.26 1314.33 1107.55 1317.26 1107.55C1326.04 1107.55 1437.31 1213.63 1438.04 1222.41C1438.04 1237.77 1361.91 1298.49 1308.48 1324.09C1081.56 1433.82 785.828 1346.04 681.152 1138.28C642.356 1061.46 630.644 1002.94 635.036 910.031C639.428 825.171 655.532 768.841 691.4 710.316C703.844 690.564 713.36 673.739 713.36 671.544C713.36 670.081 674.564 668.618 626.984 668.618V668.618C574.221 668.618 526.571 636.82 506.204 588.147V588.147C487.172 544.253 471.8 504.749 471.8 500.36C471.8 494.508 568.424 493.044 825.356 494.508C1129.14 497.434 1184.04 499.628 1222.1 509.87ZM829.016 1443.34C889.772 1486.5 885.38 1573.55 820.964 1612.32C733.856 1665.73 628.448 1557.46 685.544 1473.33C719.948 1422.12 782.168 1409.68 829.016 1443.34ZM1386.8 1436.02C1460 1474.79 1457.07 1585.26 1382.41 1616.71C1350.2 1629.88 1325.31 1629.88 1294.57 1615.25C1240.4 1589.65 1222.1 1510.64 1260.16 1465.28C1296.03 1422.85 1342.88 1411.88 1386.8 1436.02Z" fill="white"/>
<defs>
<linearGradient id="paint0_linear_2618_302" x1="399.5" y1="191" x2="1453.5" y2="1722" gradientUnits="userSpaceOnUse">
<stop stop-color="#8257FD"/>
<stop offset="0.724029" stop-color="#5534B5"/>
</linearGradient>
</defs>
</svg>
