<svg width="2006" height="2006" viewBox="0 0 2006 2006" fill="none" xmlns="http://www.w3.org/2000/svg">
<circle cx="1003" cy="1003" r="1003" fill="url(#paint0_radial_1321_95)"/>
<circle cx="1003" cy="1003" r="900" fill="white"/>
<path d="M367.351 1234.82L808.063 471.424L1189.95 691.916L749.291 1455.31L367.351 1234.82Z" fill="#FBBC04"/>
<path d="M1634.35 1232.16L1193.37 468.493C1136.44 360.824 1003.05 319.689 895.381 376.616C787.713 433.544 746.632 566.935 803.505 674.604C806.001 679.325 808.66 683.938 811.482 688.496L1252.47 1452.16C1311.94 1558.42 1446.31 1596.35 1552.57 1536.87C1658.83 1477.39 1696.76 1343.03 1637.28 1236.77C1636.31 1235.03 1635.33 1233.35 1634.35 1231.67V1232.16Z" fill="#4285F4"/>
<path d="M560.492 1563.84C682.267 1563.84 780.984 1465.13 780.984 1343.35C780.984 1221.58 682.267 1122.86 560.492 1122.86C438.718 1122.86 340 1221.58 340 1343.35C340 1465.13 438.718 1563.84 560.492 1563.84Z" fill="#34A853"/>
<defs>
<radialGradient id="paint0_radial_1321_95" cx="0" cy="0" r="1" gradientUnits="userSpaceOnUse" gradientTransform="translate(271.5 393.634) rotate(41.969) scale(1861.45 1908.12)">
<stop stop-color="#FBBC04"/>
<stop offset="0.766393" stop-color="#34A853"/>
<stop offset="1" stop-color="#4285F4"/>
</radialGradient>
</defs>
</svg>
