<svg width="2006" height="2006" viewBox="0 0 2006 2006" fill="none" xmlns="http://www.w3.org/2000/svg">
<circle cx="1003" cy="1003" r="1003" fill="url(#paint0_linear_1326_176)"/>
<circle cx="1003" cy="1003" r="900" fill="white"/>
<g clip-path="url(#clip0_1326_176)">
<path fill-rule="evenodd" clip-rule="evenodd" d="M728.068 537.14L821.122 444.068V621.751H728.068V537.14ZM1277.93 537.14L1184.88 444.068V621.751H1277.93V537.14Z" fill="#7B7B7B"/>
<path d="M821.121 444.068H1184.88V532.909H821.121V444.068Z" fill="#5A5A5A"/>
<path fill-rule="evenodd" clip-rule="evenodd" d="M1527.49 1560.93H478.514C451.59 1560.93 425.77 1550.23 406.733 1531.19C387.695 1512.15 377 1486.33 377 1459.4V796.21L551.426 621.75H1454.57L1629 796.21V1459.4C1629 1486.33 1618.3 1512.15 1599.27 1531.19C1580.23 1550.23 1554.41 1560.93 1527.49 1560.93Z" fill="#E6E7E8"/>
<path fill-rule="evenodd" clip-rule="evenodd" d="M377 981.347V796.21L551.426 621.75H1454.57L1629 796.21V981.347H377Z" fill="#D0D1D2"/>
<path fill-rule="evenodd" clip-rule="evenodd" d="M520.811 1560.93V841.739C520.811 830.519 525.267 819.758 533.199 811.825C541.131 803.891 551.89 799.434 563.108 799.434H1442.89C1454.11 799.434 1464.87 803.891 1472.8 811.825C1480.73 819.758 1485.19 830.519 1485.19 841.739V1560.93H520.811Z" fill="#458CF5"/>
<path d="M520.811 981.347H1485.19V1560.93H520.811V981.347Z" fill="white"/>
<path fill-rule="evenodd" clip-rule="evenodd" d="M1197.57 1560.93V1387.48L1112.97 1302.87L1057.99 1150.57L1096.05 1053.27L1311.77 1269.02L1349.84 1108.26L1485.19 1243.64V1560.93H1197.57Z" fill="#D2D3D4"/>
<path d="M584.256 1049.04H905.715V1408.63H584.256V1049.04ZM584.256 1489.01H998.769V1560.93H584.256V1489.01Z" fill="#D2D3D4"/>
<path fill-rule="evenodd" clip-rule="evenodd" d="M1277.93 1425.98V1560.93H1100.28V1427.89C1064.07 1411.41 1033.29 1384.94 1011.57 1351.59C989.852 1318.25 978.08 1279.4 977.636 1239.6C977.192 1199.81 988.095 1160.71 1009.07 1126.88C1030.04 1093.06 1060.21 1065.91 1096.05 1048.62V1247.87L1184.88 1302.87L1277.93 1247.87V1048.61C1313.42 1065.74 1343.36 1092.52 1364.31 1125.9C1385.26 1159.28 1396.38 1197.89 1396.38 1237.3C1396.38 1276.7 1385.26 1315.32 1364.31 1348.69C1343.36 1382.07 1313.42 1408.86 1277.93 1425.98Z" fill="#505050"/>
<path fill-rule="evenodd" clip-rule="evenodd" d="M620.209 845.97C627.319 845.97 634.27 848.079 640.183 852.03C646.095 855.981 650.703 861.597 653.425 868.168C656.146 874.739 656.858 881.969 655.47 888.945C654.083 895.92 650.659 902.328 645.631 907.357C640.603 912.386 634.197 915.811 627.223 917.198C620.248 918.586 613.02 917.873 606.45 915.152C599.881 912.43 594.266 907.821 590.315 901.907C586.364 895.994 584.256 889.042 584.256 881.929C584.256 872.392 588.044 863.246 594.786 856.502C601.529 849.758 610.673 845.97 620.209 845.97ZM725.952 845.97C733.063 845.97 740.014 848.079 745.926 852.03C751.838 855.981 756.447 861.597 759.168 868.168C761.889 874.739 762.601 881.969 761.214 888.945C759.826 895.92 756.402 902.328 751.374 907.357C746.346 912.386 739.94 915.811 732.966 917.198C725.992 918.586 718.763 917.873 712.193 915.152C705.624 912.43 700.009 907.821 696.058 901.907C692.108 895.994 689.999 889.042 689.999 881.929C689.999 872.392 693.787 863.246 700.529 856.502C707.272 849.758 716.417 845.97 725.952 845.97Z" fill="#E6E7E8"/>
</g>
<defs>
<linearGradient id="paint0_linear_1326_176" x1="45.1225" y1="62.2545" x2="1790.11" y2="1729.66" gradientUnits="userSpaceOnUse">
<stop offset="0.0364583" stop-color="#D0D1D2"/>
<stop offset="0.505208" stop-color="#458CF5"/>
<stop offset="1" stop-color="#E6E7E8"/>
</linearGradient>
<clipPath id="clip0_1326_176">
<rect width="1252" height="1117" fill="white" transform="translate(377 444)"/>
</clipPath>
</defs>
</svg>
