<svg width="2006" height="2006" viewBox="0 0 2006 2006" fill="none" xmlns="http://www.w3.org/2000/svg">
<circle cx="1003" cy="1003" r="1003" fill="url(#paint0_linear_1325_82)"/>
<circle cx="1003" cy="1003" r="900" fill="white"/>
<path d="M1241.09 533.206V1458.5C1241.09 1562.04 1312.59 1619.73 1388.29 1619.73C1458.39 1619.73 1535.5 1570.66 1535.5 1458.5V540.216C1535.5 445.303 1465.4 386 1388.29 386C1311.18 386 1241.09 451.402 1241.09 533.206Z" fill="#F9AB00"/>
<path d="M855.543 1002.87V1458.5C855.543 1562.04 927.044 1619.73 1002.75 1619.73C1072.85 1619.73 1149.96 1570.66 1149.96 1458.5V1009.88C1149.96 914.962 1079.86 855.659 1002.75 855.659C925.642 855.659 855.543 921.061 855.543 1002.87Z" fill="#E37400"/>
<path d="M617.207 1619.73C698.507 1619.73 764.414 1553.82 764.414 1472.52C764.414 1391.22 698.507 1325.32 617.207 1325.32C535.907 1325.32 470 1391.22 470 1472.52C470 1553.82 535.907 1619.73 617.207 1619.73Z" fill="#E37400"/>
<defs>
<linearGradient id="paint0_linear_1325_82" x1="45.1225" y1="62.2545" x2="1790.11" y2="1729.66" gradientUnits="userSpaceOnUse">
<stop offset="0.0364583" stop-color="#E37400"/>
<stop offset="0.5" stop-color="#E37400"/>
<stop offset="1" stop-color="#F9AB00"/>
</linearGradient>
</defs>
</svg>
