<svg width="2006" height="2006" viewBox="0 0 2006 2006" fill="none" xmlns="http://www.w3.org/2000/svg">
<circle cx="1003" cy="1003" r="1003" fill="url(#paint0_linear_1348_84)"/>
<circle cx="1003" cy="1003" r="900" fill="white"/>
<g clip-path="url(#clip0_1348_84)">
<path d="M1002.68 445.5C770.028 445.5 701.986 445.74 688.76 446.837C641.016 450.805 611.307 458.321 578.94 474.432C553.996 486.816 534.324 501.17 514.91 521.293C479.552 557.989 458.122 603.136 450.365 656.801C446.593 682.854 445.496 688.167 445.273 821.241C445.188 865.599 445.273 923.978 445.273 1002.28C445.273 1234.7 445.531 1302.66 446.645 1315.86C450.502 1362.31 457.788 1391.53 473.217 1423.49C502.704 1484.68 559.019 1530.62 625.364 1547.76C648.336 1553.67 673.708 1556.93 706.281 1558.47C720.081 1559.07 860.742 1559.5 1001.49 1559.5C1142.24 1559.5 1282.98 1559.33 1296.44 1558.64C1334.16 1556.87 1356.06 1553.93 1380.27 1547.67C1413.17 1539.24 1443.83 1523.73 1470.1 1502.22C1496.38 1480.71 1517.65 1453.73 1532.42 1423.15C1547.55 1391.96 1555.22 1361.62 1558.69 1317.6C1559.44 1308 1559.76 1154.96 1559.76 1002.14C1559.76 849.282 1559.42 696.531 1558.66 686.933C1555.15 642.198 1547.48 612.117 1531.86 580.323C1519.05 554.296 1504.82 534.859 1484.16 514.985C1447.3 479.78 1402.21 458.355 1348.48 450.608C1322.45 446.845 1317.26 445.731 1184.06 445.5H1002.68Z" fill="url(#paint1_radial_1348_84)"/>
<path d="M1002.68 445.5C770.028 445.5 701.986 445.74 688.76 446.837C641.016 450.805 611.307 458.321 578.94 474.432C553.996 486.816 534.324 501.17 514.91 521.293C479.552 557.989 458.122 603.136 450.365 656.801C446.593 682.854 445.496 688.167 445.273 821.241C445.188 865.599 445.273 923.978 445.273 1002.28C445.273 1234.7 445.531 1302.66 446.645 1315.86C450.502 1362.31 457.788 1391.53 473.217 1423.49C502.704 1484.68 559.019 1530.62 625.364 1547.76C648.336 1553.67 673.708 1556.93 706.281 1558.47C720.081 1559.07 860.742 1559.5 1001.49 1559.5C1142.24 1559.5 1282.98 1559.33 1296.44 1558.64C1334.16 1556.87 1356.06 1553.93 1380.27 1547.67C1413.17 1539.24 1443.83 1523.73 1470.1 1502.22C1496.38 1480.71 1517.65 1453.73 1532.42 1423.15C1547.55 1391.96 1555.22 1361.62 1558.69 1317.6C1559.44 1308 1559.76 1154.96 1559.76 1002.14C1559.76 849.282 1559.42 696.531 1558.66 686.933C1555.15 642.198 1547.48 612.117 1531.86 580.323C1519.05 554.296 1504.82 534.859 1484.16 514.985C1447.3 479.78 1402.21 458.355 1348.48 450.608C1322.45 446.845 1317.26 445.731 1184.06 445.5H1002.68Z" fill="url(#paint2_radial_1348_84)"/>
<path d="M1002.42 591.189C890.682 591.189 876.659 591.678 832.772 593.675C788.971 595.68 759.073 602.613 732.912 612.786C705.852 623.293 682.897 637.347 660.028 660.22C637.141 683.085 623.084 706.035 612.54 733.082C602.34 759.246 595.397 789.147 593.426 832.922C591.471 876.8 590.957 890.829 590.957 1002.55C590.957 1114.27 591.454 1128.24 593.443 1172.12C595.457 1215.91 602.392 1245.81 612.558 1271.96C623.075 1299.02 637.133 1321.97 660.01 1344.83C682.871 1367.71 705.826 1381.8 732.87 1392.31C759.047 1402.48 788.954 1409.41 832.747 1411.42C876.634 1413.42 890.648 1413.91 1002.38 1413.91C1114.13 1413.91 1128.11 1413.42 1172 1411.42C1215.8 1409.41 1245.73 1402.48 1271.91 1392.31C1298.96 1381.8 1321.88 1367.71 1344.74 1344.83C1367.63 1321.97 1381.68 1299.02 1392.23 1271.97C1402.34 1245.81 1409.29 1215.91 1411.34 1172.13C1413.31 1128.25 1413.83 1114.27 1413.83 1002.55C1413.83 890.829 1413.31 876.809 1411.34 832.931C1409.29 789.138 1402.34 759.246 1392.23 733.091C1381.68 706.035 1367.63 683.085 1344.74 660.22C1321.85 637.339 1298.97 623.284 1271.88 612.786C1245.65 602.613 1215.74 595.68 1171.94 593.675C1128.05 591.678 1114.08 591.189 1002.3 591.189H1002.42ZM965.513 665.32C976.468 665.302 988.691 665.32 1002.42 665.32C1112.28 665.32 1125.3 665.714 1168.68 667.685C1208.79 669.519 1230.57 676.221 1245.07 681.851C1264.27 689.307 1277.96 698.22 1292.35 712.617C1306.75 727.015 1315.67 740.727 1323.14 759.923C1328.77 774.407 1335.48 796.174 1337.31 836.282C1339.28 879.646 1339.71 892.672 1339.71 1002.45C1339.71 1112.23 1339.28 1125.26 1337.31 1168.62C1335.47 1208.73 1328.77 1230.5 1323.14 1244.98C1315.68 1264.18 1306.75 1277.85 1292.35 1292.24C1277.95 1306.64 1264.28 1315.55 1245.07 1323C1230.58 1328.66 1208.79 1335.34 1168.68 1337.18C1125.31 1339.15 1112.28 1339.58 1002.42 1339.58C892.56 1339.58 879.539 1339.15 836.167 1337.18C796.051 1335.33 774.279 1328.63 759.767 1323C740.567 1315.54 726.852 1306.63 712.452 1292.23C698.051 1277.83 689.137 1264.15 681.662 1244.95C676.031 1230.47 669.319 1208.7 667.493 1168.59C665.522 1125.23 665.128 1112.2 665.128 1002.35C665.128 892.501 665.522 879.543 667.493 836.179C669.328 796.071 676.031 774.304 681.662 759.803C689.12 740.607 698.051 726.895 712.452 712.497C726.852 698.1 740.567 689.187 759.767 681.714C774.271 676.058 796.051 669.373 836.167 667.531C874.122 665.817 888.831 665.302 965.513 665.217V665.32ZM1222.05 733.622C1212.28 733.622 1202.73 736.518 1194.61 741.942C1186.49 747.367 1180.17 755.078 1176.43 764.099C1172.69 773.12 1171.72 783.046 1173.62 792.622C1175.53 802.198 1180.23 810.993 1187.14 817.896C1194.05 824.799 1202.85 829.499 1212.42 831.402C1222 833.304 1231.93 832.324 1240.95 828.586C1249.97 824.847 1257.68 818.517 1263.11 810.397C1268.53 802.277 1271.42 792.732 1271.42 782.968C1271.42 755.715 1249.3 733.605 1222.05 733.605V733.622ZM1002.42 791.298C885.737 791.298 791.131 885.885 791.131 1002.55C791.131 1119.21 885.737 1213.75 1002.42 1213.75C1119.11 1213.75 1213.69 1119.21 1213.69 1002.55C1213.69 885.885 1119.11 791.298 1002.42 791.298ZM1002.42 865.428C1078.16 865.428 1139.57 926.815 1139.57 1002.55C1139.57 1078.27 1078.16 1139.67 1002.42 1139.67C926.675 1139.67 865.276 1078.27 865.276 1002.55C865.276 926.815 926.675 865.428 1002.42 865.428Z" fill="white"/>
</g>
<defs>
<linearGradient id="paint0_linear_1348_84" x1="45.1225" y1="62.2545" x2="1790.11" y2="1729.66" gradientUnits="userSpaceOnUse">
<stop offset="0.0364583" stop-color="#545ACA"/>
<stop offset="0.359375" stop-color="#AD30BC"/>
<stop offset="0.619792" stop-color="#FFB34E"/>
<stop offset="0.9375" stop-color="#E44673"/>
</linearGradient>
<radialGradient id="paint1_radial_1348_84" cx="0" cy="0" r="1" gradientUnits="userSpaceOnUse" gradientTransform="translate(741.283 1645.3) rotate(-90) scale(1104.06 1027.34)">
<stop stop-color="#FFDD55"/>
<stop offset="0.1" stop-color="#FFDD55"/>
<stop offset="0.5" stop-color="#FF543E"/>
<stop offset="1" stop-color="#C837AB"/>
</radialGradient>
<radialGradient id="paint2_radial_1348_84" cx="0" cy="0" r="1" gradientUnits="userSpaceOnUse" gradientTransform="translate(258.546 525.751) rotate(78.6754) scale(493.527 2035.22)">
<stop stop-color="#3771C8"/>
<stop offset="0.128" stop-color="#3771C8"/>
<stop offset="1" stop-color="#6600FF" stop-opacity="0"/>
</radialGradient>
<clipPath id="clip0_1348_84">
<rect width="1115" height="1115" fill="white" transform="translate(445 445)"/>
</clipPath>
</defs>
</svg>
