<svg width="2006" height="2006" viewBox="0 0 2006 2006" fill="none" xmlns="http://www.w3.org/2000/svg">
<circle cx="1003" cy="1003" r="1003" fill="url(#paint0_linear_2002_289)"/>
<circle cx="1003" cy="1003" r="900" fill="white"/>
<g clip-path="url(#clip0_2002_289)">
<path d="M914.375 341.365C844.325 350.899 761.839 376.183 702.566 406.027C655.313 429.654 590.236 476.078 547.957 515.87C448.063 610.376 387.131 711.099 356.873 831.719C288.48 1103.63 382.572 1368.91 608.889 1539.68C626.712 1553.36 647.023 1567.04 653.655 1570.36L665.261 1576.58L702.98 1526.42C723.291 1499.06 740.285 1475.02 740.285 1473.36C740.285 1471.29 727.85 1461.76 712.514 1451.81C676.038 1428.6 589.407 1342.38 564.952 1305.08C504.02 1211.4 478.321 1123.94 478.321 1010.78C478.321 910.059 494.901 841.667 537.595 760.425C611.79 620.738 744.43 522.087 903.184 487.684C951.266 477.321 1068.57 477.321 1117.48 488.098C1222.35 510.896 1308.15 557.734 1384 634.417C1434.57 685.4 1455.3 713.172 1483.9 768.3C1509.18 817.211 1519.96 846.641 1529.91 894.723C1552.71 1006.64 1541.51 1127.67 1498.41 1225.49C1444.94 1346.94 1335.92 1452.64 1211.16 1504.04C1179.24 1517.3 1093.44 1539.27 1073.96 1539.27C1068.57 1539.27 1067.74 1497.82 1067.74 1195.24V851.2H1005.57H943.39V1259.48V1667.77H1005.98C1177.17 1667.77 1318.1 1615.54 1445.76 1504.45C1558.09 1406.22 1637.26 1271.5 1663.79 1131.82C1674.15 1077.1 1673.74 926.225 1663.38 874.827C1638.51 751.306 1580.06 640.22 1490.94 547.786C1386.91 439.187 1282.04 379.914 1139.45 349.655C1093.44 339.707 961.628 334.733 914.375 341.365Z" fill="#FF0000"/>
<path d="M964.944 585.92C931.784 599.598 906.085 638.147 906.085 674.623C906.085 743.844 979.451 792.341 1041.21 764.569C1116.24 730.58 1119.14 627.37 1046.19 589.65C1029.61 580.946 982.767 578.873 964.944 585.92Z" fill="#FF0000"/>
</g>
<defs>
<linearGradient id="paint0_linear_2002_289" x1="45.1225" y1="62.2545" x2="1790.11" y2="1729.66" gradientUnits="userSpaceOnUse">
<stop stop-color="#F20002"/>
<stop offset="0.666667" stop-color="#F20002"/>
<stop offset="1" stop-color="#F20002"/>
</linearGradient>
<clipPath id="clip0_2002_289">
<rect width="1336" height="1330" fill="white" transform="translate(335 338)"/>
</clipPath>
</defs>
</svg>
