<svg width="276" height="50" viewBox="0 0 276 50" fill="none" xmlns="http://www.w3.org/2000/svg">
<path d="M55.9145 49.6918C53.4861 49.6918 51.3096 49.2336 49.3852 48.3172C47.5066 47.355 46.0174 46.072 44.9177 44.4683C43.8639 42.8647 43.3369 41.0547 43.3369 39.0386C43.3369 36.5644 43.9784 34.6171 45.2614 33.1966C46.5444 31.7304 48.6291 30.6765 51.5158 30.035C54.4024 29.3936 58.2742 29.0728 63.1312 29.0728H65.5367V27.6295C65.5367 25.3385 65.0327 23.689 64.0246 22.6809C63.0166 21.6728 61.3213 21.1688 58.9386 21.1688C57.6099 21.1688 56.1666 21.3292 54.6086 21.65C53.0966 21.9707 51.4929 22.5206 49.7975 23.2995C48.6979 23.8035 47.7815 23.8722 47.0483 23.5057C46.3152 23.0933 45.8112 22.4747 45.5363 21.65C45.3072 20.7793 45.353 19.9088 45.6737 19.0382C46.0403 18.1676 46.7505 17.5262 47.8044 17.1138C49.9121 16.2432 51.9282 15.6246 53.8526 15.2581C55.8229 14.8915 57.6099 14.7082 59.2135 14.7082C64.1163 14.7082 67.7589 15.8538 70.1416 18.1447C72.5243 20.3899 73.7156 23.8952 73.7156 28.6604V45.1556C73.7156 48.0881 72.3868 49.5543 69.7292 49.5543C67.0259 49.5543 65.6742 48.0881 65.6742 45.1556V43.6436C64.8953 45.5221 63.6581 47.0113 61.9627 48.111C60.2674 49.1648 58.2513 49.6918 55.9145 49.6918ZM57.7015 43.781C59.9467 43.781 61.8024 43.0021 63.2686 41.4442C64.7807 39.8863 65.5367 37.9161 65.5367 35.5334V34.0214H63.1999C58.8928 34.0214 55.8916 34.365 54.1963 35.0523C52.5467 35.6937 51.722 36.8851 51.722 38.6263C51.722 40.1383 52.2489 41.3755 53.3028 42.3377C54.3566 43.2999 55.8229 43.781 57.7015 43.781ZM95.3569 49.6918C92.4244 49.6918 89.8357 48.9816 87.5904 47.5612C85.3911 46.1407 83.6728 44.1247 82.4357 41.5129C81.1986 38.8553 80.58 35.7396 80.58 32.1656C80.58 28.5458 81.1986 25.453 82.4357 22.8871C83.6728 20.2754 85.3911 18.2593 87.5904 16.8389C89.8357 15.4184 92.4244 14.7082 95.3569 14.7082C97.74 14.7082 99.8932 15.2352 101.818 16.289C103.742 17.3428 105.185 18.7404 106.148 20.4815V4.32999C106.148 1.44333 107.568 0 110.409 0C113.296 0 114.739 1.44333 114.739 4.32999V45.1556C114.739 48.0881 113.318 49.5543 110.478 49.5543C107.637 49.5543 106.216 48.0881 106.216 45.1556V43.7123C105.254 45.5451 103.811 47.0113 101.886 48.111C99.962 49.1648 97.7851 49.6918 95.3569 49.6918ZM97.7626 43.1624C100.328 43.1624 102.39 42.2461 103.948 40.4132C105.507 38.5347 106.285 35.7855 106.285 32.1656C106.285 28.5001 105.507 25.7738 103.948 23.9868C102.39 22.1539 100.328 21.2376 97.7626 21.2376C95.1966 21.2376 93.1347 22.1539 91.5768 23.9868C90.0189 25.7738 89.24 28.5001 89.24 32.1656C89.24 35.7855 90.0189 38.5347 91.5768 40.4132C93.1347 42.2461 95.1966 43.1624 97.7626 43.1624ZM135.95 49.6918C133.979 49.6918 131.895 49.4856 129.695 49.0732C127.496 48.6609 125.525 47.9507 123.784 46.9426C122.822 46.3928 122.226 45.7283 121.997 44.9494C121.769 44.1247 121.791 43.3686 122.066 42.6813C122.387 41.9482 122.891 41.4213 123.578 41.1005C124.312 40.7798 125.159 40.8485 126.121 41.3067C127.954 42.1774 129.673 42.7959 131.276 43.1624C132.879 43.4832 134.46 43.6436 136.018 43.6436C138.218 43.6436 139.845 43.277 140.898 42.5439C141.998 41.765 142.548 40.7569 142.548 39.5198C142.548 37.5953 141.127 36.3582 138.286 35.8083L131.413 34.5025C125.594 33.4028 122.685 30.3787 122.685 25.4301C122.685 23.2307 123.281 21.3292 124.472 19.7255C125.709 18.1218 127.405 16.8847 129.558 16.0141C131.711 15.1435 134.185 14.7082 136.981 14.7082C141.013 14.7082 144.61 15.6017 147.771 17.3887C148.642 17.8469 149.146 18.4884 149.283 19.3131C149.467 20.092 149.375 20.8481 149.008 21.5812C148.687 22.2685 148.161 22.7725 147.428 23.0933C146.694 23.3682 145.847 23.2766 144.885 22.8184C143.464 22.0852 142.089 21.5584 140.761 21.2376C139.477 20.9168 138.24 20.7565 137.049 20.7565C134.804 20.7565 133.132 21.146 132.032 21.9249C130.979 22.7038 130.451 23.7347 130.451 25.0177C130.451 27.0338 131.757 28.2709 134.369 28.7291L141.242 30.035C144.22 30.5849 146.465 31.5929 147.977 33.0591C149.536 34.5253 150.314 36.4956 150.314 38.9699C150.314 42.3148 149.008 44.9494 146.397 46.8739C143.785 48.7525 140.302 49.6918 135.95 49.6918ZM173.977 49.6918C165.088 49.6918 160.643 45.2931 160.643 36.4956V21.8561H157.069C154.778 21.8561 153.633 20.7793 153.633 18.6258C153.633 16.4723 154.778 15.3955 157.069 15.3955H160.643V9.14109C160.643 6.25443 162.086 4.8111 164.973 4.8111C167.814 4.8111 169.234 6.25443 169.234 9.14109V15.3955H176.52C178.81 15.3955 179.956 16.4723 179.956 18.6258C179.956 20.7793 178.81 21.8561 176.52 21.8561H169.234V36.0145C169.234 38.2139 169.715 39.8634 170.678 40.9631C171.64 42.0628 173.198 42.6126 175.351 42.6126C176.13 42.6126 176.817 42.5439 177.413 42.4064C178.009 42.269 178.535 42.1774 178.994 42.1315C179.544 42.0856 180.002 42.269 180.369 42.6813C180.735 43.0479 180.918 43.8269 180.918 45.0182C180.918 45.9345 180.758 46.7593 180.437 47.4924C180.162 48.1797 179.635 48.6608 178.856 48.9358C178.26 49.1191 177.482 49.2794 176.52 49.4169C175.557 49.6002 174.71 49.6918 173.977 49.6918ZM196.024 49.6918C193.596 49.6918 191.419 49.2336 189.495 48.3172C187.616 47.355 186.127 46.072 185.027 44.4683C183.974 42.8647 183.446 41.0547 183.446 39.0386C183.446 36.5644 184.089 34.6171 185.371 33.1966C186.654 31.7304 188.739 30.6765 191.625 30.035C194.512 29.3936 198.384 29.0728 203.241 29.0728H205.646V27.6295C205.646 25.3385 205.142 23.689 204.134 22.6809C203.127 21.6728 201.431 21.1688 199.048 21.1688C197.72 21.1688 196.276 21.3292 194.718 21.65C193.206 21.9707 191.603 22.5206 189.907 23.2995C188.807 23.8035 187.891 23.8722 187.158 23.5057C186.425 23.0933 185.921 22.4747 185.646 21.65C185.417 20.7793 185.463 19.9088 185.783 19.0382C186.15 18.1676 186.86 17.5262 187.914 17.1138C190.022 16.2432 192.038 15.6246 193.962 15.2581C195.933 14.8915 197.72 14.7082 199.323 14.7082C204.226 14.7082 207.869 15.8538 210.251 18.1447C212.634 20.3899 213.825 23.8952 213.825 28.6604V45.1556C213.825 48.0881 212.497 49.5543 209.839 49.5543C207.136 49.5543 205.784 48.0881 205.784 45.1556V43.6436C205.005 45.5221 203.768 47.0113 202.072 48.111C200.378 49.1648 198.361 49.6918 196.024 49.6918ZM197.811 43.781C200.056 43.781 201.912 43.0021 203.378 41.4442C204.89 39.8863 205.646 37.9161 205.646 35.5334V34.0214H203.309C199.003 34.0214 196.001 34.365 194.306 35.0523C192.656 35.6937 191.831 36.8851 191.831 38.6263C191.831 40.1383 192.359 41.3755 193.412 42.3377C194.467 43.2999 195.933 43.781 197.811 43.781ZM226.944 49.5543C224.012 49.5543 222.545 48.0881 222.545 45.1556V19.1757C222.545 16.289 223.943 14.8457 226.738 14.8457C229.533 14.8457 230.93 16.289 230.93 19.1757V21.3063C232.58 17.3658 236.109 15.1665 241.515 14.7082C243.485 14.4792 244.585 15.6017 244.814 18.076C245.043 20.5044 243.851 21.8561 241.24 22.1311L239.728 22.2685C234.092 22.8184 231.274 25.705 231.274 30.9285V45.1556C231.274 48.0881 229.831 49.5543 226.944 49.5543ZM268.177 49.6918C259.288 49.6918 254.843 45.2931 254.843 36.4956V21.8561H251.269C248.978 21.8561 247.832 20.7793 247.832 18.6258C247.832 16.4723 248.978 15.3955 251.269 15.3955H254.843V9.14109C254.843 6.25443 256.286 4.8111 259.173 4.8111C262.014 4.8111 263.434 6.25443 263.434 9.14109V15.3955H270.72C273.011 15.3955 274.156 16.4723 274.156 18.6258C274.156 20.7793 273.011 21.8561 270.72 21.8561H263.434V36.0145C263.434 38.2139 263.915 39.8634 264.877 40.9631C265.84 42.0628 267.398 42.6126 269.551 42.6126C270.331 42.6126 271.018 42.5439 271.613 42.4064C272.209 42.269 272.736 42.1774 273.194 42.1315C273.744 42.0856 274.202 42.269 274.568 42.6813C274.936 43.0479 275.118 43.8269 275.118 45.0182C275.118 45.9345 274.958 46.7593 274.637 47.4924C274.362 48.1797 273.836 48.6608 273.056 48.9358C272.461 49.1191 271.682 49.2794 270.72 49.4169C269.757 49.6002 268.91 49.6918 268.177 49.6918Z" fill="white"/>
<path d="M29.7269 27.0572C32.5242 28.7227 32.5242 32.7735 29.7269 34.439L6.49327 48.2727C3.62991 49.9775 0 47.9142 0 44.5817V16.9145C0 13.582 3.62991 11.5187 6.49327 13.2236L29.7269 27.0572Z" fill="white"/>
</svg>
