<svg width="2006" height="2006" viewBox="0 0 2006 2006" fill="none" xmlns="http://www.w3.org/2000/svg">
<circle cx="1003" cy="1003" r="1003" fill="url(#paint0_linear_1995_289)"/>
<circle cx="1003" cy="1003" r="900" fill="white"/>
<g clip-path="url(#clip0_1995_289)">
<path d="M1436.33 860.799C1464.84 861.246 1493.16 856.018 1519.63 845.419C1546.1 834.82 1570.2 819.062 1590.52 799.062C1610.84 779.062 1626.98 755.221 1637.99 728.926C1649.01 702.631 1654.68 674.408 1654.68 645.9C1654.68 617.392 1649.01 589.168 1637.99 562.873C1626.98 536.578 1610.84 512.737 1590.52 492.737C1570.2 472.738 1546.1 456.98 1519.63 446.38C1493.16 435.781 1464.84 430.553 1436.33 431C1379.91 431.885 1326.09 454.915 1286.5 495.12C1246.91 535.325 1224.72 589.481 1224.72 645.9C1224.72 702.318 1246.91 756.474 1286.5 796.679C1326.09 836.885 1379.91 859.915 1436.33 860.799Z" fill="#372158"/>
<path d="M1212.58 1494.69C1102.05 1494.68 994.821 1456.98 908.61 1387.82C822.398 1318.66 762.354 1222.17 738.391 1114.29C730.697 1089.81 726.777 1064.3 726.765 1038.64V748C725.903 694.376 703.99 643.241 665.755 605.625C627.519 568.008 576.026 546.926 522.383 546.926C468.739 546.926 417.246 568.008 379.01 605.625C340.775 643.241 318.862 694.376 318 748V1028.44C318 1400.39 621.02 1706.24 993.004 1698.84C1112.25 1696.41 1228.62 1661.79 1329.8 1598.65C1430.98 1535.51 1513.2 1446.19 1567.76 1340.16C1522.39 1388.95 1467.43 1427.86 1406.32 1454.44C1345.21 1481.03 1279.27 1494.71 1212.63 1494.64L1212.58 1494.69Z" fill="#2BC4C3"/>
<path d="M1640.95 1030.39C1640.95 1014.78 1634.75 999.814 1623.71 988.777C1612.67 977.739 1597.69 971.538 1582.08 971.538H1290.21C1274.6 971.538 1259.62 977.739 1248.58 988.777C1237.54 999.814 1231.34 1014.78 1231.34 1030.39V1038.58C1231.26 1098.81 1209.64 1157.03 1170.38 1202.71C1131.12 1248.39 1076.81 1278.52 1017.26 1287.66C957.719 1296.81 896.867 1284.36 845.703 1252.56C794.54 1220.77 756.439 1171.72 738.286 1114.29C757.445 1200.67 799.847 1280.17 860.91 1344.21C921.974 1408.24 999.379 1454.38 1084.76 1477.64C1170.15 1500.9 1260.26 1500.39 1345.38 1476.17C1430.49 1451.94 1507.37 1404.93 1567.71 1340.21C1615.97 1246.66 1641.09 1142.9 1640.95 1037.63V1030.39Z" fill="url(#paint1_linear_1995_289)"/>
</g>
<defs>
<linearGradient id="paint0_linear_1995_289" x1="45.1225" y1="62.2545" x2="1790.11" y2="1729.66" gradientUnits="userSpaceOnUse">
<stop stop-color="#2BC4C3"/>
<stop offset="0.666667" stop-color="#372158"/>
<stop offset="1" stop-color="#2BC4C3"/>
</linearGradient>
<linearGradient id="paint1_linear_1995_289" x1="883.877" y1="1828.71" x2="1238.65" y2="1037.09" gradientUnits="userSpaceOnUse">
<stop offset="0.29" stop-color="#0C9898"/>
<stop offset="1" stop-color="#2BC4C3"/>
</linearGradient>
<clipPath id="clip0_1995_289">
<rect width="1374" height="1268" fill="white" transform="translate(318 431)"/>
</clipPath>
</defs>
</svg>
