<svg width="2006" height="2006" viewBox="0 0 2006 2006" fill="none" xmlns="http://www.w3.org/2000/svg">
<circle cx="1003" cy="1003" r="1003" fill="url(#paint0_linear_1322_114)"/>
<circle cx="1003" cy="1003" r="900" fill="white"/>
<path d="M1248.57 1316.39V1446.27L1008.17 1630.28V1431.84L1194.75 1291.14C1209.1 1280.31 1230.63 1283.92 1241.4 1298.35C1244.98 1301.96 1248.57 1309.17 1248.57 1316.39Z" fill="#16AB74"/>
<path d="M1008.17 1630.27L764.182 1446.26V1316.38C764.182 1298.34 778.531 1283.91 800.064 1283.91C807.239 1283.91 814.414 1287.52 818.001 1291.13L1004.59 1431.83L1008.17 1630.27Z" fill="#1C8F4E"/>
<path d="M1410.04 407.196V526.257C1410.04 529.865 1406.45 533.473 1406.45 537.081L1008.17 836.535V641.71L1349.04 381.942C1363.39 367.51 1384.92 367.51 1399.27 381.942C1406.45 389.157 1410.04 396.373 1410.04 407.196Z" fill="#EB599B"/>
<path d="M983.043 1027.76C983.043 1020.54 979.456 1013.32 972.277 1009.71L545.29 685.005C516.585 666.965 473.528 674.18 455.587 706.653C448.41 717.476 444.822 728.3 444.822 739.123V1208.15L606.289 1327.21V970.029C606.289 959.206 617.053 951.988 627.818 951.988C631.406 951.988 634.994 951.988 638.582 955.597L947.161 1190.11C957.927 1197.33 972.277 1197.33 979.456 1186.5C983.043 1182.89 983.043 1179.28 983.043 1172.07V1027.76Z" fill="url(#paint1_linear_1322_114)"/>
<path d="M1463.86 685.013L1036.87 1009.72C1029.69 1013.33 1026.11 1020.55 1026.11 1027.76V1168.47C1026.11 1179.29 1036.87 1190.12 1047.64 1190.12C1051.22 1190.12 1058.4 1190.12 1061.99 1186.51L1370.57 951.995C1377.75 944.781 1392.1 948.39 1399.27 955.605C1402.86 959.214 1402.86 962.819 1402.86 966.428V1327.22L1560.74 1208.16V739.131C1560.74 703.052 1528.45 674.187 1492.57 677.797C1485.39 677.797 1474.63 681.405 1463.86 685.013Z" fill="url(#paint2_linear_1322_114)"/>
<path d="M663.699 378.328C649.347 367.505 624.23 371.113 613.465 385.544C609.877 392.76 606.289 399.976 606.289 407.192V659.744C606.289 670.568 609.877 677.784 617.053 684.999L728.286 771.587C739.05 778.805 749.814 775.196 756.991 764.372C756.991 760.763 760.579 757.158 760.579 753.549V681.391C760.579 674.176 767.755 666.96 774.933 666.96C778.521 666.96 778.521 666.96 782.108 670.568L1004.57 836.531V641.705L663.699 378.328Z" fill="#E52C46"/>
<defs>
<linearGradient id="paint0_linear_1322_114" x1="45.1225" y1="62.2545" x2="1790.11" y2="1729.66" gradientUnits="userSpaceOnUse">
<stop offset="0.0364583" stop-color="#15AB74"/>
<stop offset="0.208333" stop-color="#1C8F4D"/>
<stop offset="0.359375" stop-color="#FDC219"/>
<stop offset="0.557292" stop-color="#E52D46"/>
<stop offset="0.770833" stop-color="#EA5999"/>
<stop offset="1" stop-color="#1C38F9"/>
</linearGradient>
<linearGradient id="paint1_linear_1322_114" x1="448.558" y1="1001.08" x2="983.851" y2="1001.08" gradientUnits="userSpaceOnUse">
<stop stop-color="#FDC418"/>
<stop offset="1" stop-color="#F6A217"/>
</linearGradient>
<linearGradient id="paint2_linear_1322_114" x1="1029.05" y1="1001.73" x2="1564.35" y2="1001.73" gradientUnits="userSpaceOnUse">
<stop stop-color="#0319F7"/>
<stop offset="1" stop-color="#2041F9"/>
</linearGradient>
</defs>
</svg>
