<svg width="2006" height="2006" viewBox="0 0 2006 2006" fill="none" xmlns="http://www.w3.org/2000/svg">
<circle cx="1003" cy="1003" r="1003" fill="url(#paint0_linear_1708_281)"/>
<circle cx="1003" cy="1003" r="900" fill="white"/>
<path d="M1153.98 471.863C1049.94 482.827 937.071 532.568 860.042 601.296C849.343 610.923 839.447 618.678 838.11 618.678C837.04 618.678 823.4 614.667 808.155 609.586C601.942 540.858 380.218 640.874 294.095 841.173C271.094 895.193 262 940.922 262 1003.77C262 1053.51 265.744 1080.78 278.048 1122.23C327.26 1287.5 473.561 1405.17 646.073 1418.27C701.705 1422.55 751.72 1416.13 808.155 1397.68L838.11 1388.05L850.948 1399.02C950.444 1486.46 1063.58 1532.46 1191.16 1537.54C1338.53 1543.69 1482.16 1487.8 1586.46 1383.77C1663.49 1307.29 1712.71 1216.1 1735.98 1106.72C1742.66 1074.37 1743.2 1067.41 1743.46 1006.44C1743.46 936.376 1742.13 922.737 1728.75 871.125C1701.47 764.958 1644.24 672.162 1561.59 600.761C1448.19 502.617 1302.15 456.62 1153.98 471.863ZM1278.08 593.54C1419.84 616.539 1542.87 714.415 1596.09 847.057C1671.25 1033.18 1604.92 1243.11 1436.42 1352.48C1244.92 1477.1 988.958 1422.82 862.984 1230.81C823.4 1170.1 800.398 1102.18 796.119 1031.31L794.514 1003.77H734.603H674.959L676.564 1027.03C680.308 1087.2 692.879 1147.1 711.334 1193.9C722.032 1221.18 741.022 1260.49 751.72 1277.34C756.535 1285.09 757.604 1288.57 755.197 1289.91C746.906 1294.99 708.124 1299.27 670.947 1299C637.247 1298.73 626.816 1297.66 605.152 1291.78C569.312 1282.42 543.101 1270.92 513.948 1251.67C446.815 1207.54 399.742 1136.94 384.497 1057.79C379.683 1032.38 379.683 975.152 384.497 949.747C404.556 845.719 477.841 759.61 576.801 724.31C648.481 698.637 732.463 702.114 799.328 733.402C897.219 779.131 960.607 867.648 972.108 974.35L975.317 1003.77H1034.16H1093L1091.4 976.222C1087.38 903.75 1061.71 829.942 1018.91 767.097C1010.09 753.994 989.76 729.926 973.98 713.613L945.094 684.196L951.246 679.383C954.455 676.709 968.898 666.814 983.074 657.187C1070 599.156 1174.04 576.693 1278.08 593.54Z" fill="#2C3357"/>
<defs>
<linearGradient id="paint0_linear_1708_281" x1="45.1225" y1="62.2545" x2="1790.11" y2="1729.66" gradientUnits="userSpaceOnUse">
<stop stop-color="#2C3357"/>
<stop offset="1" stop-color="#2C3357"/>
</linearGradient>
</defs>
</svg>
