<svg width="2006" height="2006" viewBox="0 0 2006 2006" fill="none" xmlns="http://www.w3.org/2000/svg">
<circle cx="1003" cy="1003" r="1003" fill="url(#paint0_linear_1325_146)"/>
<circle cx="1003" cy="1003" r="900" fill="white"/>
<path d="M1001.82 1605.91C1335.45 1605.91 1605.91 1335.45 1605.91 1001.81C1605.91 668.182 1335.45 397.72 1001.82 397.72C668.183 397.72 397.721 668.182 397.721 1001.81C397.721 1335.45 668.183 1605.91 1001.82 1605.91Z" fill="white"/>
<path d="M1001.82 397.72C668.181 397.72 397.721 668.18 397.721 1001.81C397.721 1257.74 556.947 1476.51 781.67 1564.54C776.394 1516.75 771.615 1443.23 783.764 1391.05C794.745 1343.91 854.605 1090.78 854.605 1090.78C854.605 1090.78 836.535 1054.59 836.535 1001.09C836.535 917.094 885.225 854.375 945.85 854.375C997.386 854.375 1022.29 893.064 1022.29 939.472C1022.29 991.304 989.291 1068.8 972.255 1140.61C958.026 1200.74 1002.41 1249.76 1061.72 1249.76C1169.08 1249.76 1251.62 1136.55 1251.62 973.14C1251.62 828.507 1147.68 727.368 999.279 727.368C827.393 727.368 726.51 856.295 726.51 989.532C726.51 1041.46 746.512 1097.13 771.468 1127.39C776.408 1133.37 777.133 1138.61 775.656 1144.72C771.065 1163.79 760.876 1204.83 758.876 1213.22C756.244 1224.28 750.123 1226.63 738.672 1221.3C663.227 1186.18 616.054 1075.88 616.054 987.276C616.054 796.718 754.513 621.718 1015.2 621.718C1224.75 621.718 1387.62 771.05 1387.62 970.617C1387.62 1178.81 1256.34 1346.36 1074.15 1346.36C1012.93 1346.36 955.381 1314.56 935.688 1277C935.688 1277 905.402 1392.34 898.059 1420.6C884.42 1473.08 847.61 1538.84 822.977 1578.97C879.466 1596.47 939.54 1605.91 1001.82 1605.91C1335.45 1605.91 1605.91 1335.45 1605.91 1001.81C1605.91 668.18 1335.45 397.72 1001.82 397.72Z" fill="#E60023"/>
<defs>
<linearGradient id="paint0_linear_1325_146" x1="45.1225" y1="62.2545" x2="1790.11" y2="1729.66" gradientUnits="userSpaceOnUse">
<stop offset="0.0364583" stop-color="#E60023"/>
<stop offset="1" stop-color="#E60023"/>
</linearGradient>
</defs>
</svg>
