<svg width="2006" height="2006" viewBox="0 0 2006 2006" fill="none" xmlns="http://www.w3.org/2000/svg">
<circle cx="1003" cy="1003" r="1003" fill="url(#paint0_linear_2943_302)"/>
<circle cx="1003" cy="1003" r="900" fill="white"/>
<mask id="mask0_2943_302" style="mask-type:luminance" maskUnits="userSpaceOnUse" x="194" y="439" width="1613" height="1128">
<path d="M194.355 439.963H1806.43V1566.04H194.355V439.963Z" fill="white"/>
</mask>
<g mask="url(#mask0_2943_302)">
<path fill-rule="evenodd" clip-rule="evenodd" d="M863.722 563.239C915.758 509.069 988.183 475.524 1068.19 475.524C1174.88 475.524 1267.33 534.791 1317.12 623.098C1361.31 603.343 1409.17 593.144 1457.58 593.169C1649.61 593.169 1805.48 750.226 1805.48 944.029C1805.48 1137.83 1649.61 1294.89 1457.58 1294.89C1434.11 1294.89 1411.23 1292.53 1388.83 1288.07C1345.27 1365.71 1262 1418.46 1167.17 1418.46C1128.56 1418.54 1090.45 1409.78 1055.75 1392.86C1011.59 1496.58 908.765 1569.47 789.045 1569.47C663.991 1569.47 557.902 1490.65 517.007 1379.82C498.806 1383.66 480.254 1385.59 461.652 1385.58C312.89 1385.58 192.578 1263.49 192.578 1113.54C192.578 1012.79 246.748 925.076 327.115 877.662C310.065 838.386 301.289 796.018 301.333 753.201C301.333 580.142 441.797 440.271 614.858 440.271C716.205 440.271 806.884 488.574 863.781 563.547" fill="#00A1E0"/>
</g>
<path fill-rule="evenodd" clip-rule="evenodd" d="M427.514 1025.52C426.5 1028.16 427.875 1028.72 428.201 1029.18C431.23 1031.38 434.306 1032.97 437.387 1034.75C453.864 1043.46 469.392 1046.01 485.631 1046.01C518.702 1046.01 539.268 1028.41 539.268 1000.08V999.521C539.268 973.325 516.035 963.783 494.343 956.967L491.505 956.049C475.087 950.727 460.923 946.092 460.923 935.305V934.754C460.923 925.508 469.22 918.693 482.022 918.693C496.246 918.693 513.196 923.428 524.042 929.42C524.042 929.42 527.255 931.494 528.422 928.395C529.056 926.718 534.586 911.919 535.179 910.259C535.807 908.523 534.705 907.213 533.573 906.537C521.126 898.951 503.939 893.795 486.159 893.795L482.857 893.807C452.572 893.807 431.413 912.12 431.413 938.316V938.879C431.413 966.498 454.765 975.506 476.575 981.729L480.084 982.82C495.967 987.703 509.717 991.947 509.717 1003.09V1003.65C509.717 1013.9 500.768 1021.54 486.425 1021.54C480.848 1021.54 463.074 1021.45 443.812 1009.28C441.483 1007.92 440.155 1006.94 438.359 1005.84C437.411 1005.27 435.04 1004.23 434.009 1007.34L427.49 1025.47M911.704 1025.47C910.691 1028.12 912.066 1028.67 912.404 1029.14C915.421 1031.33 918.508 1032.92 921.59 1034.7C938.067 1043.41 953.595 1045.96 969.834 1045.96C1002.91 1045.96 1023.47 1028.36 1023.47 1000.03V999.474C1023.47 973.278 1000.3 963.736 978.546 956.92L975.707 956.001C959.29 950.679 945.125 946.045 945.125 935.258V934.707C945.125 925.461 953.423 918.645 966.225 918.645C980.449 918.645 997.34 923.381 1008.25 929.373C1008.25 929.373 1011.46 931.447 1012.63 928.347C1013.26 926.67 1018.79 911.871 1019.33 910.212C1019.96 908.475 1018.85 907.165 1017.73 906.49C1005.28 898.904 988.094 893.747 970.314 893.747L967.007 893.759C936.721 893.759 915.563 912.073 915.563 938.269V938.832C915.563 966.45 938.914 975.459 960.725 981.682L964.227 982.772C980.17 987.656 993.861 991.899 993.861 1003.04V1003.6C993.861 1013.85 984.912 1021.5 970.569 1021.5C964.98 1021.5 947.158 1021.4 927.956 1009.23C925.626 1007.87 924.263 1006.94 922.497 1005.8C921.898 1005.42 919.107 1004.33 918.153 1007.29L911.633 1025.43M1242.35 969.953C1242.35 985.955 1239.36 998.579 1233.51 1007.53C1227.68 1016.36 1218.88 1020.69 1206.61 1020.69C1194.34 1020.69 1185.57 1016.39 1179.82 1007.59C1174.03 998.697 1171.11 986.014 1171.11 970.012C1171.11 954.01 1174.05 941.445 1179.82 932.615C1185.56 923.843 1194.28 919.635 1206.61 919.635C1218.93 919.635 1227.71 923.885 1233.51 932.615C1239.39 941.445 1242.35 954.01 1242.35 970.012M1269.96 940.319C1267.24 931.133 1263.03 923.073 1257.4 916.316C1251.76 909.56 1244.66 904.107 1236.18 900.196C1227.77 896.254 1217.81 894.269 1206.55 894.269C1195.29 894.269 1185.39 896.266 1176.91 900.196C1168.5 904.131 1161.33 909.56 1155.7 916.316C1150.08 923.073 1145.86 931.133 1143.13 940.319C1140.44 949.446 1139.07 959.403 1139.07 970.012C1139.07 980.621 1140.44 990.578 1143.13 999.705C1145.84 1008.89 1150.07 1016.95 1155.7 1023.71C1161.33 1030.46 1168.5 1035.86 1176.91 1039.71C1185.39 1043.55 1195.35 1045.51 1206.55 1045.51C1217.75 1045.51 1227.71 1043.55 1236.12 1039.71C1244.54 1035.87 1251.71 1030.46 1257.34 1023.71C1262.96 1016.95 1267.18 1008.89 1269.9 999.705C1272.6 990.578 1273.96 980.621 1273.96 970.012C1273.96 959.463 1272.6 949.446 1269.9 940.319M1496.9 1016.18C1495.99 1013.5 1493.37 1014.51 1493.37 1014.51C1489.36 1016.04 1485.08 1017.47 1480.51 1018.18C1475.91 1018.9 1470.79 1019.26 1465.4 1019.26C1452.06 1019.26 1441.4 1015.29 1433.81 1007.41C1426.16 999.527 1421.9 986.844 1421.96 969.656C1422 954.01 1425.78 942.275 1432.56 933.267C1439.26 924.377 1449.57 919.754 1463.21 919.754C1474.58 919.754 1483.3 921.075 1492.42 923.932C1492.42 923.932 1494.59 924.874 1495.62 922.024C1498.05 915.326 1499.84 910.526 1502.44 903.177C1503.18 901.073 1501.37 900.184 1500.72 899.929C1497.14 898.53 1488.68 896.237 1482.28 895.27C1476.3 894.358 1469.36 893.884 1461.54 893.884C1449.92 893.884 1439.61 895.869 1430.78 899.804C1421.95 903.734 1414.48 909.169 1408.55 915.925C1402.63 922.681 1398.12 930.742 1395.1 939.928C1392.11 949.055 1390.6 959.071 1390.6 969.68C1390.6 992.557 1396.76 1011.11 1408.97 1024.68C1421.18 1038.31 1439.55 1045.19 1463.5 1045.19C1477.66 1045.19 1492.18 1042.32 1502.61 1038.19C1502.61 1038.19 1504.6 1037.23 1503.74 1034.91L1496.92 1016.18M1545.23 954.543C1546.55 945.653 1548.98 938.245 1552.81 932.496C1558.54 923.725 1567.27 918.924 1579.54 918.924C1591.81 918.924 1599.93 923.748 1605.74 932.496C1609.59 938.275 1611.27 945.95 1611.9 954.543L1544.93 954.532L1545.23 954.543ZM1638.28 934.985C1635.92 926.155 1630.1 917.205 1626.3 913.116C1620.26 906.656 1614.39 902.092 1608.52 899.603C1600.05 896.001 1590.94 894.152 1581.73 894.168C1570.06 894.168 1559.45 896.142 1550.86 900.154C1542.26 904.196 1535.03 909.696 1529.34 916.571C1523.66 923.446 1519.39 931.566 1516.66 940.87C1513.93 950.057 1512.56 960.132 1512.56 970.682C1512.56 981.468 1513.99 991.485 1516.8 1000.55C1519.63 1009.68 1524.2 1017.68 1530.37 1024.32C1536.53 1031.02 1544.41 1036.23 1553.9 1039.91C1563.32 1043.55 1574.76 1045.44 1587.86 1045.4C1614.88 1045.31 1629.11 1039.3 1634.91 1036.04C1635.95 1035.45 1636.93 1034.45 1635.71 1031.57L1629.6 1014.44C1628.67 1011.88 1626.08 1012.81 1626.08 1012.81C1619.39 1015.31 1609.9 1019.8 1587.68 1019.74C1573.16 1019.72 1562.43 1015.43 1555.67 1008.72C1548.8 1001.84 1545.36 991.828 1544.83 977.604L1638.47 977.675C1638.47 977.675 1640.94 977.652 1641.19 975.245C1641.29 974.25 1644.4 956.043 1638.4 935.003L1638.28 934.985ZM796.678 954.543C798 945.653 800.442 938.245 804.265 932.496C810.002 923.725 818.726 918.924 830.994 918.924C843.262 918.924 851.382 923.748 857.19 932.496C861.037 938.275 862.72 945.95 863.354 954.543L796.382 954.532L796.678 954.543ZM889.728 934.985C887.381 926.155 881.549 917.205 877.756 913.116C871.711 906.656 865.843 902.092 859.976 899.603C851.505 896.001 842.392 894.152 833.187 894.168C821.511 894.168 810.902 896.142 802.309 900.154C793.715 904.196 786.484 909.696 780.795 916.571C775.123 923.446 770.838 931.566 768.111 940.87C765.391 950.057 764.022 960.132 764.022 970.682C764.022 981.468 765.438 991.485 768.266 1000.55C771.098 1009.68 775.674 1017.68 781.779 1024.32C787.942 1031.02 795.825 1036.23 805.308 1039.91C814.731 1043.55 826.11 1045.44 839.268 1045.4C866.294 1045.31 880.518 1039.3 886.326 1036.04C887.357 1035.45 888.341 1034.45 887.114 1031.57L881.01 1014.44C880.068 1011.88 877.483 1012.81 877.483 1012.81C870.786 1015.31 861.303 1019.8 839.078 1019.74C824.617 1019.72 813.83 1015.43 807.074 1008.72C800.199 1001.84 796.761 991.828 796.228 977.604L889.87 977.675C889.87 977.675 892.336 977.652 892.591 975.245C892.691 974.25 895.797 956.043 889.793 935.003L889.728 934.985ZM594.576 1015.59C590.908 1012.66 590.398 1011.94 589.183 1010.04C587.328 1007.18 586.38 1003.11 586.38 997.891C586.38 989.712 589.106 983.786 594.736 979.815C594.677 979.827 602.797 972.821 621.881 973.058C630.375 973.211 638.85 973.933 647.247 975.222V1017.72H647.259C647.259 1017.72 635.406 1020.27 622.011 1021.08C602.987 1022.22 594.571 1015.6 594.63 1015.62L594.576 1015.59ZM631.796 949.802C628.003 949.523 623.084 949.387 617.217 949.387C609.216 949.387 601.451 950.383 594.221 952.339C586.931 954.306 580.352 957.353 574.722 961.407C569.076 965.434 564.432 970.707 561.15 976.816C557.837 982.98 556.147 990.21 556.147 998.389C556.147 1006.69 557.588 1013.86 560.433 1019.73C563.22 1025.55 567.417 1030.58 572.642 1034.36C577.839 1038.15 584.258 1040.94 591.666 1042.6C599.016 1044.28 607.313 1045.13 616.44 1045.13C626.042 1045.13 635.584 1044.32 644.829 1042.76C652.704 1041.4 660.549 1039.88 668.358 1038.19C671.476 1037.47 674.937 1036.53 674.937 1036.53C677.249 1035.94 677.071 1033.47 677.071 1033.47L677.017 948.125C677.017 929.396 672.015 915.469 662.141 906.875C652.303 898.281 637.901 893.955 619.232 893.955C612.238 893.955 600.918 894.903 594.162 896.26C594.162 896.26 573.774 900.219 565.358 906.81C565.358 906.81 563.508 907.948 564.516 910.526L571.154 928.306C571.978 930.611 574.224 929.823 574.224 929.823C574.224 929.823 574.929 929.545 575.759 929.053C593.717 919.274 616.476 919.57 616.476 919.57C626.551 919.57 634.375 921.615 639.59 925.615C644.693 929.533 647.295 935.454 647.295 947.9V951.853C639.294 950.691 631.885 950.021 631.885 950.021L631.796 949.802ZM1384.49 901.618C1384.63 901.305 1384.7 900.969 1384.7 900.629C1384.7 900.288 1384.64 899.951 1384.5 899.637C1384.37 899.323 1384.18 899.038 1383.94 898.8C1383.69 898.562 1383.4 898.376 1383.09 898.252C1381.49 897.647 1373.55 895.97 1367.44 895.591C1355.71 894.856 1349.19 896.835 1343.32 899.467C1337.52 902.08 1331.11 906.282 1327.55 911.142L1327.54 899.763C1327.54 898.198 1326.43 896.936 1324.86 896.936H1300.91C1299.36 896.936 1298.23 898.198 1298.23 899.763V1039.04C1298.24 1039.79 1298.54 1040.51 1299.07 1041.05C1299.6 1041.58 1300.32 1041.88 1301.07 1041.88H1325.61C1326.36 1041.88 1327.08 1041.58 1327.61 1041.05C1328.14 1040.51 1328.44 1039.79 1328.44 1039.04V969.105C1328.44 959.741 1329.47 950.436 1331.53 944.569C1333.56 938.767 1336.31 934.138 1339.71 930.819C1342.95 927.613 1346.91 925.235 1351.27 923.885C1355.35 922.712 1359.58 922.118 1363.83 922.118C1368.72 922.118 1374.09 923.375 1374.09 923.375C1375.89 923.576 1376.89 922.474 1377.5 920.85C1379.11 916.577 1383.66 903.781 1384.55 901.233" fill="#FFFFFE"/>
<path fill-rule="evenodd" clip-rule="evenodd" d="M1155.32 837.337C1152.29 836.42 1149.2 835.688 1146.08 835.144C1141.88 834.443 1137.63 834.114 1133.38 834.16C1116.47 834.16 1103.14 838.937 1093.78 848.373C1084.49 857.737 1078.16 872.002 1074.99 890.772L1073.85 897.108H1052.62C1052.62 897.108 1050.03 897.001 1049.49 899.828L1046 919.268C1045.76 921.129 1046.56 922.29 1049.05 922.278H1069.71L1048.75 1039.29C1047.11 1048.71 1045.23 1056.46 1043.15 1062.34C1041.1 1068.13 1039.09 1072.48 1036.63 1075.63C1034.24 1078.68 1031.98 1080.93 1028.07 1082.24C1024.85 1083.32 1021.14 1083.82 1017.07 1083.82C1014.81 1083.82 1011.8 1083.44 1009.57 1083C1007.35 1082.56 1006.19 1082.06 1004.53 1081.36C1004.53 1081.36 1002.11 1080.44 1001.15 1082.87C1000.37 1084.85 994.869 1100 994.217 1101.87C993.553 1103.72 994.483 1105.18 995.657 1105.6C998.407 1106.58 1000.45 1107.21 1004.2 1108.09C1009.4 1109.32 1013.79 1109.4 1017.89 1109.4C1026.5 1109.4 1034.34 1108.19 1040.84 1105.84C1047.39 1103.48 1053.08 1099.36 1058.12 1093.78C1063.57 1087.76 1066.99 1081.46 1070.27 1072.87C1073.51 1064.35 1076.27 1053.78 1078.48 1041.46L1099.55 922.278H1130.34C1130.34 922.278 1132.94 922.373 1133.48 919.558L1136.96 900.119C1137.21 898.258 1136.41 897.096 1133.91 897.108H1104.02C1104.17 896.432 1105.53 885.918 1108.96 876.021C1110.42 871.795 1113.18 868.387 1115.51 866.046C1117.69 863.816 1120.38 862.145 1123.34 861.174C1126.59 860.17 1129.98 859.682 1133.38 859.728C1136.19 859.728 1138.95 860.066 1141.06 860.504C1143.96 861.121 1145.08 861.447 1145.84 861.672C1148.89 862.603 1149.3 861.702 1149.89 860.226L1157.04 840.597C1157.78 838.487 1155.99 837.598 1155.32 837.337ZM737.642 1039.54C737.642 1041.1 736.528 1042.38 734.963 1042.38H710.172C708.601 1042.38 707.487 1041.1 707.487 1039.54V839.998C707.487 838.439 708.601 837.177 710.172 837.177H734.963C736.528 837.177 737.642 838.439 737.642 839.998V1039.54Z" fill="#FFFFFE"/>
<defs>
<linearGradient id="paint0_linear_2943_302" x1="45.1225" y1="62.2545" x2="1790.11" y2="1729.66" gradientUnits="userSpaceOnUse">
<stop stop-color="#00A1E0"/>
<stop offset="1" stop-color="#00A1E0"/>
</linearGradient>
</defs>
</svg>
