<svg width="2112" height="2112" viewBox="0 0 2112 2112" fill="none" xmlns="http://www.w3.org/2000/svg">
<circle cx="1056" cy="1003" r="1003" fill="url(#paint0_linear_2002_728)"/>
<circle cx="1056" cy="1003" r="900" fill="white"/>
<path d="M702.819 500.647C745.283 500.647 786.879 508.432 825.876 524.867C901.271 556.872 961.065 616.557 993.13 691.811C1009.6 730.737 1018.26 772.256 1017.39 814.642C1017.39 857.026 1009.6 898.546 993.13 937.471C961.065 1012.73 901.271 1072.41 825.876 1104.42C747.015 1137.29 659.49 1137.29 580.63 1104.42C505.236 1072.41 445.44 1012.73 413.376 937.471C396.911 898.546 388.245 857.026 389.112 814.642C389.112 772.256 396.911 730.737 413.376 691.811C445.44 616.557 505.236 556.872 580.63 524.867C619.627 508.432 661.222 500.647 702.819 500.647ZM702.819 967.746C787.746 967.746 857.074 898.546 857.074 813.776C857.074 729.007 787.746 659.807 702.819 659.807C617.893 659.807 548.565 729.007 548.565 813.776C548.565 876.056 585.83 932.281 643.025 955.636C662.089 963.421 682.888 967.746 702.819 967.746Z" fill="#72AA18"/>
<path d="M1709.79 814.637C1709.79 857.023 1701.99 898.542 1685.53 937.467C1653.46 1012.72 1593.67 1072.41 1518.28 1104.41C1479.28 1120.85 1437.67 1129.5 1395.21 1128.63C1341.49 1128.63 1288.62 1115.66 1241.83 1089.71V1292.12H1080.64V814.637C1080.64 772.253 1088.44 730.732 1104.91 691.808C1136.97 616.552 1196.77 556.868 1272.16 524.862C1351.02 491.993 1438.55 491.993 1517.4 524.862C1592.8 556.868 1652.6 616.552 1684.65 691.808C1701.12 730.732 1709.79 772.253 1709.79 814.637ZM1548.61 814.637C1548.61 729.003 1479.28 660.668 1393.49 660.668C1307.69 660.668 1239.23 729.868 1239.23 815.503C1239.23 901.138 1308.56 969.472 1394.35 969.472C1456.74 969.472 1513.07 932.277 1537.34 874.322C1544.27 855.292 1548.61 835.397 1548.61 814.637Z" fill="#72AA18"/>
<path d="M609.302 1281.74C609.302 1281.74 694.228 1443.5 866.682 1485.01C1040 1527.39 1156.13 1483.28 1156.13 1483.28L1228.92 1557.67C1228.92 1557.67 1081.6 1658.88 826.819 1584.49C677.763 1542.97 558.172 1432.24 504.444 1287.79L609.302 1281.74Z" fill="#72AA18"/>
<defs>
<linearGradient id="paint0_linear_2002_728" x1="98.1225" y1="62.2545" x2="1843.11" y2="1729.66" gradientUnits="userSpaceOnUse">
<stop stop-color="#404450"/>
<stop offset="0.375" stop-color="#72AA18"/>
<stop offset="0.786458" stop-color="#72AA18"/>
<stop offset="1" stop-color="#404450"/>
</linearGradient>
</defs>
</svg>
