<svg width="2006" height="2006" viewBox="0 0 2006 2006" fill="none" xmlns="http://www.w3.org/2000/svg">
<circle cx="1003" cy="1003" r="1003" fill="url(#paint0_linear_1521_98)"/>
<circle cx="1003" cy="1003" r="900" fill="white"/>
<path d="M1378.58 655.844C1377.79 650.119 1372.77 646.95 1368.63 646.601C1364.49 646.256 1276.93 639.766 1276.93 639.766C1276.93 639.766 1216.12 579.399 1209.45 572.717C1202.77 566.039 1189.73 568.071 1184.66 569.561C1183.92 569.78 1171.38 573.651 1150.63 580.07C1130.32 521.62 1094.47 467.907 1031.4 467.907C1029.66 467.907 1027.87 467.977 1026.07 468.079C1008.14 444.36 985.918 434.055 966.726 434.055C819.808 434.055 749.617 617.706 727.61 711.031C670.521 728.72 629.965 741.295 624.785 742.922C592.919 752.918 591.911 753.921 587.727 783.946C584.578 806.678 501.199 1451.44 501.199 1451.44L1150.9 1573.16L1502.93 1497.01C1502.93 1497.01 1379.35 661.569 1378.58 655.844ZM1114.72 591.175L1059.75 608.189C1059.77 604.315 1059.79 600.503 1059.79 596.335C1059.79 560.009 1054.74 530.76 1046.65 507.574C1079.15 511.652 1100.79 548.625 1114.72 591.175ZM1006.34 514.777C1015.38 537.414 1021.25 569.902 1021.25 613.741C1021.25 615.984 1021.23 618.035 1021.21 620.109C985.459 631.183 946.609 643.205 907.673 655.267C929.535 570.898 970.514 530.148 1006.34 514.777ZM962.691 473.459C969.032 473.459 975.42 475.612 981.534 479.819C934.449 501.974 883.979 557.774 862.666 669.203L772.919 696.997C797.883 612.004 857.164 473.459 962.691 473.459Z" fill="#95BF46"/>
<path d="M1368.63 646.601C1364.49 646.256 1276.93 639.766 1276.93 639.766C1276.93 639.766 1216.12 579.399 1209.45 572.717C1206.95 570.231 1203.58 568.957 1200.06 568.408L1150.93 1573.16L1502.93 1497.01C1502.93 1497.01 1379.35 661.568 1378.58 655.843C1377.79 650.118 1372.77 646.95 1368.63 646.601Z" fill="#5E8E3E"/>
<path d="M1031.4 841.102L987.992 970.213C987.992 970.213 949.962 949.916 903.343 949.916C835 949.916 831.561 992.803 831.561 1003.61C831.561 1062.58 985.283 1085.17 985.283 1223.29C985.283 1331.96 916.355 1401.94 823.416 1401.94C711.889 1401.94 654.855 1332.53 654.855 1332.53L684.717 1233.87C684.717 1233.87 743.343 1284.2 792.812 1284.2C825.137 1284.2 838.286 1258.75 838.286 1240.16C838.286 1163.24 712.171 1159.81 712.171 1033.42C712.171 927.036 788.53 824.092 942.668 824.092C1002.06 824.092 1031.4 841.102 1031.4 841.102Z" fill="white"/>
<defs>
<linearGradient id="paint0_linear_1521_98" x1="45.1225" y1="62.2545" x2="1790.11" y2="1729.66" gradientUnits="userSpaceOnUse">
<stop offset="0.0364583" stop-color="#95BF46"/>
<stop offset="0.354167" stop-color="#95BF46"/>
<stop offset="0.552083" stop-color="#95BF46"/>
<stop offset="0.791667" stop-color="#5E8E3E"/>
</linearGradient>
</defs>
</svg>
