<svg xmlns="http://www.w3.org/2000/svg" xmlns:xlink="http://www.w3.org/1999/xlink" version="1.1" id="Layer_2" x="0px" y="0px" viewBox="0 0 240 240" enable-background="new 0 0 240 240" xml:space="preserve">
<rect class="star" xmlns="http://www.w3.org/2000/svg" rx="10" ry="10" x="106" y="90" fill="#FFFFFF" width="1.5" height="1.5"/>
<rect class="star" xmlns="http://www.w3.org/2000/svg" rx="10" ry="10" x="74" y="63" fill="#FFFFFF" width="1" height="1"/>
<rect class="star" xmlns="http://www.w3.org/2000/svg" rx="10" ry="10" x="23" y="66" fill="#FFFFFF" width="1" height="1"/>
<rect class="star" xmlns="http://www.w3.org/2000/svg" rx="10" ry="10" x="50" y="110" fill="#FFFFFF" width="1" height="1"/>
<rect class="star" xmlns="http://www.w3.org/2000/svg" rx="10" ry="10" x="63" y="128" fill="#FFFFFF" width="1" height="1"/>
<rect class="star" xmlns="http://www.w3.org/2000/svg" rx="10" ry="10" x="45" y="149" fill="#FFFFFF" width="1" height="1"/>
<rect class="star" xmlns="http://www.w3.org/2000/svg" rx="10" ry="10" x="92" y="151" fill="#FFFFFF" width="1" height="1"/>
<rect class="star" xmlns="http://www.w3.org/2000/svg" rx="10" ry="10" x="58" y="8" fill="#FFFFFF" width="1" height="1"/>
<rect class="star" xmlns="http://www.w3.org/2000/svg" rx="10" ry="10" x="147" y="33" fill="#FFFFFF" width="2" height="2"/>
<rect class="star" xmlns="http://www.w3.org/2000/svg" rx="10" ry="10" x="91" y="43" fill="#FFFFFF" width="1" height="1"/>
<rect class="star" xmlns="http://www.w3.org/2000/svg" rx="10" ry="10" x="169" y="29" fill="#FFFFFF" width="1" height="1"/>
<rect class="star" xmlns="http://www.w3.org/2000/svg" rx="10" ry="10" x="182" y="19" fill="#FFFFFF" width="1" height="1"/>
<rect class="star" xmlns="http://www.w3.org/2000/svg" rx="10" ry="10" x="161" y="59" fill="#FFFFFF" width="1" height="1"/>
<rect class="star" xmlns="http://www.w3.org/2000/svg" rx="10" ry="10" x="138" y="95" fill="#FFFFFF" width="1" height="1"/>
<rect class="star" xmlns="http://www.w3.org/2000/svg" rx="10" ry="10" x="199" y="71" fill="#FFFFFF" width="1.5" height="1.5"/>
<rect class="star" xmlns="http://www.w3.org/2000/svg" rx="10" ry="10" x="213" y="153" fill="#FFFFFF" width="2" height="2"/>
<rect class="star" xmlns="http://www.w3.org/2000/svg" rx="10" ry="10" x="128" y="163" fill="#FFFFFF" width="1" height="1"/>
<rect class="star" xmlns="http://www.w3.org/2000/svg" rx="10" ry="10" x="205" y="174" fill="#FFFFFF" width="1" height="1"/>
<rect class="star" xmlns="http://www.w3.org/2000/svg" rx="10" ry="10" x="152" y="200" fill="#FFFFFF" width="1" height="1"/>
<rect class="star" xmlns="http://www.w3.org/2000/svg" rx="10" ry="10" x="52" y="211" fill="#FFFFFF" width="1" height="1"/>
<rect class="star" xmlns="http://www.w3.org/2000/svg" rx="10" ry="10" y="191" fill="#FFFFFF" width="1" height="1"/>
<rect class="star" xmlns="http://www.w3.org/2000/svg" rx="10" ry="10" x="110" y="184" fill="#FFFFFF" width="1" height="1"/>
</svg>