<svg width="2006" height="2006" viewBox="0 0 2006 2006" fill="none" xmlns="http://www.w3.org/2000/svg">
<circle cx="1003" cy="1003" r="1003" fill="url(#paint0_linear_1325_134)"/>
<circle cx="1003" cy="1003" r="900" fill="white"/>
<path d="M879.382 868.984V819.86C862.336 817.438 845.135 816.193 827.921 816.109C617.332 816.109 446 987.469 446 1198.06C446 1327.24 510.561 1441.59 609.047 1510.74C543.1 1440.22 506.432 1347.26 506.488 1250.71C506.488 1043.11 672.95 873.826 879.382 868.984Z" fill="#00F2EA"/>
<path d="M888.395 1425.12C982.36 1425.12 1059 1350.37 1062.5 1257.22L1062.82 425.651H1214.74C1211.49 408.282 1209.86 390.662 1209.84 373H1002.35L1002 1204.59C998.539 1297.72 921.858 1372.44 827.921 1372.44C799.72 1372.46 771.939 1365.58 746.999 1352.41C779.678 1398.01 832.301 1425.06 888.395 1425.12ZM1498.51 707.924V661.712C1442.68 661.768 1388.05 645.519 1341.31 614.981C1382.29 662.159 1437.45 694.769 1498.54 707.924" fill="#00F2EA"/>
<path d="M1341.32 614.939C1295.52 562.54 1270.29 495.292 1270.32 425.693H1214.73C1229.27 503.423 1275.02 571.819 1341.32 614.939ZM827.921 1023.61C731.633 1023.72 653.608 1101.74 653.496 1198.03C653.552 1262.86 689.548 1322.31 746.972 1352.43C725.517 1322.84 713.97 1287.25 713.97 1250.71C714.068 1154.42 792.093 1076.37 888.395 1076.26C906.365 1076.26 923.594 1079.22 939.856 1084.33V872.497C922.81 870.076 905.61 868.83 888.395 868.746C885.372 868.746 882.391 868.914 879.396 868.97V1031.68C862.742 1026.39 845.387 1023.66 827.921 1023.61Z" fill="#FF004F"/>
<path d="M1498.51 707.924V869.194C1390.9 869.194 1291.24 834.779 1209.83 776.362V1198.04C1209.83 1408.63 1038.52 1579.97 827.935 1579.97C746.552 1579.97 671.088 1554.28 609.061 1510.73C681.151 1588.47 782.38 1632.64 888.395 1632.62C1098.98 1632.62 1270.32 1461.28 1270.32 1250.72V829.041C1354.41 889.515 1455.42 921.998 1559 921.872V714.32C1538.23 714.32 1518.04 712.067 1498.5 707.882" fill="#FF004F"/>
<path d="M1209.81 1198.03V776.348C1293.91 836.836 1394.92 869.306 1498.5 869.18V707.925C1437.42 694.755 1382.27 662.132 1341.3 614.939C1275 571.819 1229.25 503.423 1214.71 425.693H1062.81L1062.48 1257.26C1059 1350.38 982.347 1425.13 888.381 1425.13C832.302 1425.08 779.665 1398.01 747 1352.44C689.576 1322.34 653.566 1262.89 653.496 1198.04C653.608 1101.76 731.633 1023.73 827.921 1023.62C845.863 1023.62 863.092 1026.56 879.382 1031.69V868.984C672.95 873.826 506.488 1043.11 506.488 1250.71C506.488 1351.1 545.494 1442.49 609.047 1510.74C673.118 1555.85 749.575 1580.02 827.921 1579.95C1038.52 1579.95 1209.81 1408.62 1209.81 1198.03Z" fill="black"/>
<defs>
<linearGradient id="paint0_linear_1325_134" x1="45.1225" y1="62.2545" x2="1790.11" y2="1729.66" gradientUnits="userSpaceOnUse">
<stop offset="0.164853" stop-color="#00F2EA"/>
<stop offset="0.557204"/>
<stop offset="0.949633" stop-color="#FF004F"/>
</linearGradient>
</defs>
</svg>
