<svg width="2006" height="2006" viewBox="0 0 2006 2006" fill="none" xmlns="http://www.w3.org/2000/svg">
<circle cx="1003" cy="1003" r="1003" fill="url(#paint0_linear_1511_100)"/>
<circle cx="1003" cy="1003" r="900" fill="white"/>
<g clip-path="url(#clip0_1511_100)">
<path d="M692.621 503.588C692.621 763.796 840.996 1013.12 901.087 1098.7C907.965 1108.7 917.103 1116.93 927.759 1122.73C938.415 1128.54 950.288 1131.74 962.415 1132.09H1342.25C1354.43 1131.99 1366.4 1128.89 1377.09 1123.07C1387.79 1117.24 1396.88 1108.87 1403.58 1098.7C1463.67 1011.39 1612.04 762.064 1612.04 503.588H692.621Z" fill="#43A0D6"/>
<path d="M627.334 1358.91C649.837 1321.81 670.116 1284.71 688.909 1247.36C670.608 1285.73 650.048 1322.98 627.334 1358.91Z" fill="#002C6A"/>
<path d="M733.431 1158.06C722.303 1180.33 711.176 1204.56 700.047 1226.83C711.176 1204.56 721.809 1182.3 733.431 1158.06Z" fill="#002C6A"/>
<path d="M1061.82 505.32H929.027C924.328 546.379 916.909 590.159 907.759 635.918C901.825 664.858 891.191 720.262 863.742 815.49C849.893 863.228 796.232 1015.35 784.856 1038.1C782.879 1036.12 762.601 1002.98 753.451 986.654C731.743 948.436 712.337 908.955 695.337 868.422C693.112 862.981 678.274 823.653 675.802 816.727C669.373 798.919 658.986 767.258 654.287 753.902C628.574 673.061 611.416 589.743 603.099 505.32H394.633V609.452H484.152C496.546 677.209 514.579 743.811 538.061 808.564C576.51 919.023 631.183 1023.14 700.283 1117.5C703.745 1122.45 719.077 1142.23 725.012 1147.43L733.915 1158.06C722.787 1180.32 711.658 1204.57 700.531 1226.83C696.821 1234.25 693.112 1239.94 689.403 1247.36C668.878 1284.7 648.353 1323.54 627.828 1358.91H748.999C773.728 1318.1 800.93 1277.04 823.187 1235.24C889.618 1105.51 946.241 970.991 992.581 832.805C1025.15 725.867 1048.32 616.289 1061.82 505.32Z" fill="#002C6A"/>
<path d="M724.269 1500.39C724.269 1516.24 719.57 1531.74 710.767 1544.91C701.962 1558.09 689.449 1568.37 674.809 1574.44C660.168 1580.49 644.058 1582.08 628.516 1578.99C612.974 1575.9 598.698 1568.27 587.493 1557.06C576.288 1545.85 568.656 1531.57 565.565 1516.03C562.474 1500.48 564.06 1484.37 570.124 1469.72C576.188 1455.08 586.458 1442.56 599.633 1433.76C612.81 1424.95 628.3 1420.25 644.148 1420.25C665.356 1420.38 685.661 1428.87 700.658 1443.87C715.657 1458.87 724.14 1479.18 724.269 1500.39Z" fill="#002C6A"/>
<path d="M1448.34 1500.39C1448.34 1516.24 1443.64 1531.74 1434.83 1544.91C1426.03 1558.09 1413.52 1568.37 1398.87 1574.42C1384.24 1580.49 1368.13 1582.08 1352.59 1578.99C1337.05 1575.9 1322.77 1568.27 1311.56 1557.06C1300.36 1545.85 1292.73 1531.57 1289.63 1516.03C1286.54 1500.48 1288.13 1484.37 1294.19 1469.72C1300.26 1455.08 1310.53 1442.56 1323.7 1433.76C1336.88 1424.95 1352.36 1420.25 1368.22 1420.25C1378.76 1420.15 1389.23 1422.16 1399 1426.15C1408.76 1430.14 1417.63 1436.04 1425.09 1443.5C1432.56 1450.96 1438.44 1459.84 1442.44 1469.61C1446.43 1479.37 1448.43 1489.84 1448.34 1500.39Z" fill="#002C6A"/>
</g>
<defs>
<linearGradient id="paint0_linear_1511_100" x1="45.1225" y1="62.2545" x2="1790.11" y2="1729.66" gradientUnits="userSpaceOnUse">
<stop offset="0.0364583" stop-color="#1B2769"/>
<stop offset="0.354167" stop-color="#00A1DF"/>
<stop offset="0.708333" stop-color="#00A1DF"/>
<stop offset="1" stop-color="#1C2B6A"/>
</linearGradient>
<clipPath id="clip0_1511_100">
<rect width="1217" height="1077" fill="white" transform="translate(395 504)"/>
</clipPath>
</defs>
</svg>
