<svg width="2006" height="2006" viewBox="0 0 2006 2006" fill="none" xmlns="http://www.w3.org/2000/svg">
<circle cx="1003" cy="1003" r="1003" fill="url(#paint0_linear_2153_332)"/>
<circle cx="1003" cy="1003" r="900" fill="white"/>
<path d="M930.525 679.283C962.395 684.913 1034.43 702.283 1098.8 762.653C1153.51 813.983 1174.13 870.593 1183.8 894.883C1183.8 894.883 1210.28 967.243 1200.91 1069.06C1200.11 1077.79 1196.97 1089.96 1188.26 1113.43C1183.16 1127.18 1176.95 1133.84 1161.42 1132.29C1139.24 1130.51 1119.05 1133.39 1097.98 1130.51C1087.23 1129.22 1076.65 1126.69 1066.47 1122.97C1055.27 1119.85 1045.14 1113.71 1037.19 1105.22C1028.76 1093.46 1043.4 1085.22 1047.62 1075.94C1059.07 1051.65 1064.61 1025 1063.79 998.164C1062.97 971.325 1055.8 945.062 1042.89 921.522C1029.97 897.981 1011.67 877.832 989.472 862.72C967.277 847.608 941.821 837.963 915.185 834.573C828.765 826.813 741.824 826.813 655.405 834.573C611.723 839.012 571.545 860.471 543.563 894.306C515.581 928.142 502.046 971.634 505.885 1015.37C508.663 1058.49 527.662 1098.96 559.063 1128.65C590.463 1158.33 631.937 1175.02 675.145 1175.37H788.955C791.977 1174.88 795.077 1175.24 797.904 1176.42C800.731 1177.6 803.173 1179.54 804.955 1182.03C864.635 1267.88 865.075 1268.32 940.505 1321.79C925.21 1326.61 909.289 1329.15 893.255 1329.33C821.595 1329.33 749.715 1332.66 678.065 1329.33C569.815 1324.33 355.735 1193.09 360.065 997.463C363.345 850.143 490.155 709.463 668.725 679.333L930.525 679.283Z" fill="#116ABC"/>
<path d="M1383.97 685.503C1492.68 703.193 1647.48 827.713 1645.52 1003.84C1644.68 1080.84 1616.8 1155.09 1566.76 1213.61C1516.72 1272.13 1447.7 1311.21 1371.77 1324C1317.63 1329.8 1263.12 1331.51 1208.71 1329.1C1162.33 1331.05 1115.86 1328.9 1069.84 1322.67C892.904 1291.23 774.744 1122.57 805.634 945.533C809.006 926.086 814.206 907.002 821.164 888.533C822.072 884.417 824.488 880.791 827.936 878.368C831.384 875.945 835.615 874.901 839.794 875.443H896.584C912.755 875.448 928.728 878.991 943.384 885.823C975.104 899.823 975.384 900.023 960.914 930.193C948.722 956.317 943.313 985.094 945.188 1013.86C947.062 1042.63 956.16 1070.46 971.639 1094.78C987.118 1119.1 1008.48 1139.13 1033.75 1153.01C1059.02 1166.89 1087.38 1174.18 1116.2 1174.19H1331.38C1354.01 1174.44 1376.47 1170.21 1397.46 1161.74C1418.44 1153.28 1437.55 1140.75 1453.68 1124.88C1469.81 1109 1482.64 1090.1 1491.44 1069.25C1500.24 1048.4 1504.83 1026.01 1504.94 1003.38C1505.06 980.753 1500.7 958.323 1492.12 937.383C1483.54 916.443 1470.91 897.405 1454.94 881.365C1438.98 865.325 1420 852.599 1399.1 843.918C1378.2 835.237 1355.79 830.773 1333.16 830.783H1222.25C1218.06 831.33 1213.81 830.502 1210.13 828.423C1206.45 826.343 1203.54 823.125 1201.84 819.253C1171.55 767.172 1128.49 723.663 1076.72 692.823C1069.18 687.943 1067.18 684.823 1075.17 679.283C1160.6 674.441 1246.25 674.956 1331.61 680.823C1360.26 682.753 1374.54 684.003 1383.97 685.503Z" fill="#116ABC"/>
<defs>
<linearGradient id="paint0_linear_2153_332" x1="45.1225" y1="62.2545" x2="1790.11" y2="1729.66" gradientUnits="userSpaceOnUse">
<stop stop-color="#116ABC"/>
<stop offset="1" stop-color="#116ABC"/>
</linearGradient>
</defs>
</svg>
