<svg width="2006" height="2006" viewBox="0 0 2006 2006" fill="none" xmlns="http://www.w3.org/2000/svg">
<circle cx="1003" cy="1003" r="1003" fill="url(#paint0_linear_1910_289)"/>
<circle cx="1003" cy="1003" r="900" fill="white"/>
<g clip-path="url(#clip0_1910_289)">
<path d="M617.635 792.961L469.481 1153.58H389.928L254.138 792.961H361.81L434.505 1015.07H435.877L509.219 792.961H617.635Z" fill="#1D26D4"/>
<path d="M738.984 792.961L746.528 842.323C759.136 824.449 775.873 809.881 795.317 799.855C814.761 789.829 836.338 784.642 858.216 784.734C876.771 784.765 895.072 789.045 911.716 797.246C928.359 805.446 942.902 817.348 954.229 832.039C982.347 868.376 986.462 914.996 986.462 966.415V1153.58H889.078V971.214C889.078 944.476 888.392 914.31 878.105 893.742C869.189 875.917 851.358 868.376 830.098 868.376C801.294 868.376 769.747 884.83 751.916 914.31V1153.58H654.532V792.961H738.984Z" fill="#1D26D4"/>
<path d="M1308.95 1153.58L1300.72 1109.1C1275.25 1148.86 1226.65 1161.99 1189.62 1161.99C1094.29 1161.99 1021.59 1076.95 1021.59 971.979C1021.59 870.511 1092.92 784.812 1190.99 784.812C1225.28 784.812 1268.49 797.153 1295.92 828.005V637.293H1393.3V1153.58H1308.95ZM1295.92 907.455C1271.23 878.66 1242.42 868.376 1212.25 868.376C1149.84 868.376 1121.04 923.909 1121.04 974.643C1121.04 1027.43 1155.33 1078.17 1210.88 1078.17C1241.74 1078.17 1274.66 1066.41 1295.92 1030.86V907.455Z" fill="#1D26D4"/>
<path d="M1667.51 1153.58L1659.96 1122.81C1636.65 1151.62 1600.3 1161.98 1561.99 1161.98C1494.78 1161.98 1432.37 1121.52 1432.37 1047.47C1432.37 959.031 1514.67 930.921 1589.42 930.921C1611.34 931.214 1633.17 933.741 1654.58 938.463V932.802C1654.58 887.553 1636.06 860.129 1583.25 860.129C1542.1 860.129 1505.76 875.212 1474.21 891.666L1448.15 821.736C1494.1 799.112 1549.65 784.714 1603.14 784.714C1703.27 784.714 1751.96 842.989 1751.96 936.915V1153.56L1667.51 1153.58ZM1654.48 996.581C1638.3 992.71 1621.74 990.641 1605.1 990.411C1569.44 990.411 1527.6 1003.44 1527.6 1045.94C1527.6 1077.48 1553.66 1093.94 1582.47 1093.94C1610.59 1093.94 1633.9 1081.59 1654.48 1063.08V996.581Z" fill="#1D26D4"/>
<path d="M902.441 1227.47V1273.64C905.111 1270.02 908.604 1267.09 912.632 1265.09C916.659 1263.09 921.105 1262.08 925.602 1262.14C946.568 1262.14 962.009 1279.04 962.009 1300.44C962.009 1319.67 947.587 1338.46 925.289 1338.46C916.693 1338.4 908.469 1334.95 902.422 1328.84V1336.67H889.176V1227.49H902.441V1227.47ZM902.441 1315.15C904.853 1318.51 908.019 1321.27 911.688 1323.19C915.356 1325.11 919.423 1326.15 923.564 1326.21C940.455 1326.21 948.469 1312.66 948.469 1300.14C948.469 1286.59 939.005 1274.36 923.838 1274.36C916.001 1274.36 906.066 1279.18 902.441 1288.21V1315.15Z" fill="#1D26D4"/>
<path d="M983.719 1263.84L1002.67 1319.02H1003L1022.32 1263.84H1036.74L995.809 1369.43L984.17 1364.9L995.672 1334.46L969.004 1263.84H983.719Z" fill="#1D26D4"/>
<path d="M1205.41 1209.13H1181.33V1336.44H1205.41V1209.13Z" fill="#1D26D4"/>
<path d="M1120.9 1247.15C1111.87 1247.15 1103.04 1249.83 1095.52 1254.85C1088.01 1259.87 1082.16 1267 1078.7 1275.34C1075.24 1283.68 1074.34 1292.87 1076.1 1301.72C1077.87 1310.58 1082.22 1318.72 1088.6 1325.1C1094.99 1331.49 1103.13 1335.84 1111.99 1337.6C1120.85 1339.36 1130.03 1338.46 1138.38 1335C1146.72 1331.54 1153.86 1325.69 1158.88 1318.18C1163.9 1310.67 1166.57 1301.85 1166.57 1292.82C1166.57 1280.71 1161.76 1269.09 1153.2 1260.53C1144.63 1251.97 1133.01 1247.15 1120.9 1247.15ZM1120.9 1315.24C1116.47 1315.24 1112.13 1313.93 1108.45 1311.47C1104.76 1309 1101.89 1305.51 1100.19 1301.41C1098.49 1297.32 1098.05 1292.81 1098.91 1288.46C1099.78 1284.12 1101.91 1280.12 1105.05 1276.99C1108.18 1273.86 1112.18 1271.72 1116.53 1270.86C1120.87 1269.99 1125.38 1270.44 1129.48 1272.13C1133.57 1273.83 1137.08 1276.7 1139.54 1280.38C1142 1284.07 1143.32 1288.4 1143.32 1292.83C1143.32 1295.78 1142.74 1298.69 1141.61 1301.41C1140.48 1304.13 1138.83 1306.6 1136.75 1308.68C1134.67 1310.76 1132.2 1312.41 1129.48 1313.54C1126.76 1314.66 1123.84 1315.24 1120.9 1315.24Z" fill="#1D26D4"/>
<path d="M1299.64 1282.3C1292.19 1279.24 1285.57 1276.42 1285.57 1270.76C1285.57 1266.51 1289.65 1263.96 1294.23 1263.96C1300.82 1264.26 1307.08 1266.91 1311.87 1271.44L1321.84 1253.46C1311.77 1247.43 1306.17 1245.14 1294.23 1245.14C1277.97 1245.14 1262.35 1254.3 1262.35 1272.46C1262.35 1288.13 1274.11 1294.19 1284.73 1298.77C1293.55 1302.69 1301.7 1305.39 1301.7 1311.68C1301.7 1317.1 1295.23 1319.51 1290.33 1319.51C1281.67 1319.51 1276.09 1315.6 1269.31 1309L1259.71 1326.04C1269.78 1334.11 1277.62 1338.53 1291.53 1338.53C1308.81 1338.53 1325.78 1329.52 1325.78 1309.86C1325.76 1292.82 1311.18 1287.06 1299.64 1282.3Z" fill="#1D26D4"/>
<path d="M1247.25 1247.15H1223.16V1336.44H1247.25V1247.15Z" fill="#1D26D4"/>
<path d="M1385.09 1315.4C1382.13 1317.02 1378.81 1317.89 1375.43 1317.93C1370.34 1317.93 1368.32 1314.72 1367.59 1309.45C1367.31 1306.91 1367.2 1304.36 1367.26 1301.81V1267.17H1389.97V1247.16H1367.2V1227.45H1346.84L1343.12 1247.16H1332.44V1267.17H1343.12V1304.39C1342.96 1309.42 1343.53 1314.45 1344.81 1319.32C1348.04 1330.88 1357.37 1338.5 1371.26 1338.5C1378.65 1338.51 1385.93 1336.7 1392.46 1333.23L1385.09 1315.4Z" fill="#1D26D4"/>
<path d="M1247.25 1209.11H1223.16V1229.64H1247.25V1209.11Z" fill="#1D26D4"/>
</g>
<defs>
<linearGradient id="paint0_linear_1910_289" x1="45.1225" y1="62.2545" x2="1790.11" y2="1729.66" gradientUnits="userSpaceOnUse">
<stop stop-color="#1D26D4"/>
<stop offset="1" stop-color="#1D26D4"/>
</linearGradient>
<clipPath id="clip0_1910_289">
<rect width="1498" height="732" fill="white" transform="translate(254 637)"/>
</clipPath>
</defs>
</svg>
