<svg width="2006" height="2006" viewBox="0 0 2006 2006" fill="none" xmlns="http://www.w3.org/2000/svg">
<circle cx="1003" cy="1003" r="1003" fill="url(#paint0_linear_1325_98)"/>
<circle cx="1003" cy="1003" r="900" fill="white"/>
<g clip-path="url(#clip0_1325_98)">
<path d="M1573.93 495.972H572.142C494.463 495.972 444.722 578.552 481.071 647.204L581.33 836.954H399.615C388.111 836.957 376.802 839.932 366.785 845.589C356.768 851.246 348.381 859.395 342.438 869.245C336.494 879.095 333.195 890.313 332.86 901.812C332.525 913.312 335.166 924.703 340.526 934.882L662.838 1544.93C668.521 1555.66 677.019 1564.63 687.421 1570.9C697.822 1577.16 709.733 1580.47 721.874 1580.47C734.015 1580.47 745.926 1577.16 756.328 1570.9C766.729 1564.63 775.228 1555.66 780.91 1544.93L868.446 1380.14L978.267 1588.05C1016.92 1661.18 1121.62 1661.31 1160.41 1588.27L1662.53 643.373C1698.03 576.543 1649.6 495.972 1573.93 495.972ZM1123.93 899.686L907.419 1307.2C903.635 1314.34 897.979 1320.31 891.058 1324.47C884.138 1328.63 876.214 1330.83 868.138 1330.83C860.061 1330.83 852.138 1328.63 845.217 1324.47C838.296 1320.31 832.64 1314.34 828.856 1307.2L614.437 901.4C610.86 894.626 609.095 887.043 609.311 879.386C609.527 871.729 611.718 864.257 615.671 857.696C619.624 851.134 625.205 845.705 631.874 841.935C638.542 838.165 646.071 836.182 653.731 836.177H1085.73C1093.19 836.182 1100.52 838.115 1107.01 841.788C1113.5 845.461 1118.93 850.75 1122.77 857.14C1126.62 863.531 1128.74 870.807 1128.94 878.261C1129.15 885.716 1127.42 893.096 1123.93 899.686Z" fill="#F71963"/>
</g>
<defs>
<linearGradient id="paint0_linear_1325_98" x1="45.1225" y1="62.2545" x2="1790.11" y2="1729.66" gradientUnits="userSpaceOnUse">
<stop offset="0.0364583" stop-color="#F71963"/>
<stop offset="0.5" stop-color="#F71963"/>
<stop offset="1" stop-color="#F71963"/>
</linearGradient>
<clipPath id="clip0_1325_98">
<rect width="1350" height="1350" fill="white" transform="translate(328 492)"/>
</clipPath>
</defs>
</svg>
