<svg width="2006" height="2006" viewBox="0 0 2006 2006" fill="none" xmlns="http://www.w3.org/2000/svg">
<circle cx="1003" cy="1003" r="1003" fill="#25D366"/>
<circle cx="1003" cy="1003" r="900" fill="white"/>
<g clip-path="url(#clip0_2102_289)">
<path d="M1286.62 1091.19C1284.32 1090.09 1198.15 1047.65 1182.83 1042.14C1176.58 1039.9 1169.88 1037.71 1162.76 1037.71C1151.13 1037.71 1141.35 1043.51 1133.74 1054.9C1125.13 1067.69 1099.07 1098.15 1091.02 1107.25C1089.97 1108.45 1088.53 1109.89 1087.67 1109.89C1086.9 1109.89 1073.57 1104.39 1069.53 1102.64C977.092 1062.49 906.928 965.928 897.307 949.645C895.933 947.304 895.876 946.241 895.864 946.241C896.202 945.001 899.31 941.885 900.915 940.277C905.608 935.634 910.693 929.513 915.613 923.591C917.942 920.786 920.276 917.977 922.567 915.329C929.705 907.024 932.882 900.577 936.566 893.109L938.497 889.229C947.492 871.357 939.809 856.275 937.326 851.405C935.288 847.329 898.904 759.516 895.035 750.29C885.733 728.028 873.441 717.662 856.359 717.662C854.774 717.662 856.359 717.662 849.712 717.942C841.619 718.284 797.543 724.086 778.056 736.371C757.39 749.4 722.429 790.931 722.429 863.969C722.429 929.704 764.144 991.771 782.054 1015.38C782.5 1015.97 783.317 1017.18 784.503 1018.91C853.093 1119.09 938.6 1193.32 1025.28 1227.95C1108.73 1261.28 1148.25 1265.14 1170.71 1265.14H1170.72C1180.16 1265.14 1187.71 1264.39 1194.38 1263.74L1198.61 1263.34C1227.44 1260.78 1290.79 1227.95 1305.2 1187.91C1316.55 1156.36 1319.55 1121.9 1311.99 1109.4C1306.82 1100.89 1297.91 1096.61 1286.62 1091.19Z" fill="#25D366"/>
<path d="M1013.49 412C693.369 412 432.93 670.482 432.93 988.198C432.93 1090.96 460.43 1191.55 512.527 1279.58L412.813 1573.72C410.955 1579.21 412.337 1585.27 416.393 1589.4C419.321 1592.39 423.293 1594 427.35 1594C428.904 1594 430.47 1593.77 431.997 1593.28L738.703 1495.82C822.633 1540.66 917.492 1564.33 1013.5 1564.33C1333.59 1564.33 1594 1305.88 1594 988.198C1594 670.482 1333.59 412 1013.49 412ZM1013.49 1444.31C923.157 1444.31 835.662 1418.22 760.451 1368.87C757.922 1367.21 754.986 1366.36 752.031 1366.36C750.469 1366.36 748.904 1366.6 747.38 1367.08L593.739 1415.92L643.337 1269.59C644.941 1264.86 644.139 1259.63 641.184 1255.59C583.911 1177.34 553.636 1084.88 553.636 988.198C553.636 736.666 759.925 532.027 1013.49 532.027C1267.02 532.027 1473.29 736.666 1473.29 988.198C1473.29 1239.7 1267.03 1444.31 1013.49 1444.31Z" fill="#25D366"/>
</g>
<defs>
<clipPath id="clip0_2102_289">
<rect width="1182" height="1182" fill="white" transform="translate(412 412)"/>
</clipPath>
</defs>
</svg>
