<svg width="2006" height="2006" viewBox="0 0 2006 2006" fill="none" xmlns="http://www.w3.org/2000/svg">
<circle cx="1003" cy="1003" r="1003" fill="#7F54B3"/>
<circle cx="1003" cy="1003" r="900" fill="white"/>
<path d="M1313.99 1649.25L849.266 1476.01L1046.77 1231.43L1313.99 1649.25Z" fill="#7F54B3"/>
<rect x="484" y="507" width="1037" height="993" rx="100" fill="#7F54B3"/>
<path d="M708.308 773.462C717.518 762.355 730.949 755.461 745.53 755.078C775.46 753.164 792.727 767.333 797.332 797.589C815.752 920.906 835.704 1025.84 856.809 1112.01L986.892 865.375C998.788 843.163 1013.37 831.29 1031.4 830.142C1057.5 828.228 1073.61 844.695 1080.14 879.929C1092.42 948.865 1111.22 1016.65 1136.16 1082.14C1151.89 932.013 1177.99 823.249 1214.44 756.228C1221.73 740.909 1236.69 730.951 1253.58 730.186C1267.01 729.036 1280.44 733.25 1290.8 742.058C1301.54 750.1 1308.07 762.739 1308.84 776.142C1309.6 786.099 1307.68 796.057 1303.08 804.483C1280.06 847.376 1260.87 918.609 1245.91 1018.18C1231.32 1114.31 1225.57 1189.75 1229.4 1243.76C1230.94 1257.16 1228.25 1270.56 1222.5 1282.44C1216.74 1294.69 1204.46 1303.12 1191.03 1303.88C1175.3 1305.03 1159.95 1297.75 1144.22 1282.05C1088.96 1225.75 1045.22 1141.88 1012.99 1030.44C974.996 1106.27 946.217 1163.33 927.414 1200.86C892.496 1267.88 862.566 1301.97 838.008 1303.88C821.89 1305.03 808.076 1291.63 796.949 1263.29C766.634 1185.93 734.018 1036.18 699.099 814.056C696.029 799.504 699.482 784.952 708.308 773.462Z" fill="white"/>
</svg>
